<?xml version="1.0" standalone="no"?>
<!DOCTYPE svg PUBLIC "-//W3C//DTD SVG 1.1//EN" "http://www.w3.org/Graphics/SVG/1.1/DTD/svg11.dtd" >
<svg xmlns="http://www.w3.org/2000/svg" xmlns:xlink="http://www.w3.org/1999/xlink" version="1.1">
<metadata>
Created by FontForge 20161003 at Sat Aug 24 18:22:04 2019
 By www-data
(c) 1989, 1995, 2002 Adobe Systems Incorporated. All rights reserved.
</metadata>
<defs>
<font id="AvenirLTStdHeavy" horiz-adv-x="260" >
  <font-face 
    font-family="AvenirLTStdHeavy"
    font-weight="700"
    font-stretch="normal"
    units-per-em="1000"
    panose-1="2 11 7 3 2 2 3 2 2 4"
    ascent="756"
    descent="-244"
    x-height="480"
    cap-height="708"
    bbox="-166 -250 1160 939"
    underline-thickness="50"
    underline-position="-150"
    unicode-range="U+0020-FB02"
  />
<missing-glyph horiz-adv-x="500" 
d="M0 0v700h500v-700h-500zM250 395l170 255h-340zM280 350l170 -255v510zM80 50h340l-170 255zM50 605v-510l170 255z" />
    <glyph glyph-name="f_i" unicode="fi" horiz-adv-x="593" 
d="M111 0v378h-99v102h99v68q0 110 37.5 165t141.5 55q41 0 76 -7l-8 -102q-30 7 -50 7q-46 0 -61.5 -26t-15.5 -73v-87h111v-102h-111v-378h-120zM420 0v480h120v-480h-120zM404 643q0 29 22 50.5t54 21.5q33 0 55.5 -20.5t22.5 -51.5t-22.5 -51.5t-55.5 -20.5
q-32 0 -54 21.5t-22 50.5z" />
    <glyph glyph-name="f_l" unicode="fl" horiz-adv-x="593" 
d="M111 0v378h-99v102h99v68q0 110 37.5 165t141.5 55q41 0 76 -7l-8 -102q-30 7 -50 7q-46 0 -61.5 -26t-15.5 -73v-87h111v-102h-111v-378h-120zM420 0v756h120v-756h-120z" />
    <glyph glyph-name=".notdef" horiz-adv-x="500" 
d="M0 0v700h500v-700h-500zM250 395l170 255h-340zM280 350l170 -255v510zM80 50h340l-170 255zM50 605v-510l170 255z" />
    <glyph glyph-name=".null" horiz-adv-x="0" 
 />
    <glyph glyph-name="nonmarkingreturn" horiz-adv-x="333" 
 />
    <glyph glyph-name="space" unicode=" " horiz-adv-x="296" 
 />
    <glyph glyph-name="exclam" unicode="!" horiz-adv-x="296" 
d="M208 708v-486h-120v486h120zM68 70q0 32 23.5 55t56.5 23t56.5 -22t23.5 -54t-23.5 -55t-56.5 -23q-32 0 -56 22t-24 54z" />
    <glyph glyph-name="quotedbl" unicode="&#x22;" horiz-adv-x="519" 
d="M120 444v264h102v-264h-102zM297 444v264h102v-264h-102z" />
    <glyph glyph-name="numbersign" unicode="#" horiz-adv-x="592" 
d="M107 0l30 209h-90v84h101l18 122h-90v84h101l30 209h88l-30 -209h103l30 209h87l-30 -209h90v-84h-102l-17 -122h90v-84h-100l-31 -209h-87l30 209h-104l-30 -209h-87zM356 415h-103l-17 -122h103z" />
    <glyph glyph-name="dollar" unicode="$" horiz-adv-x="592" 
d="M318 786v-66h9q53 0 106 -18t90 -51l-83 -93q-51 54 -122 54v-200l4 -1q41 -11 67 -19.5t59.5 -25.5t52.5 -36.5t32.5 -50.5t13.5 -71q0 -95 -64.5 -152t-164.5 -67v-72h-54v71q-147 -2 -233 89l91 93q46 -65 142 -74v211l-5 1q-49 13 -81.5 27t-65 37t-48.5 58.5
t-16 82.5q0 85 63.5 141t152.5 65v67h54zM264 427v183q-38 -6 -64 -30.5t-26 -60.5q0 -13 2 -23t8 -18.5t9.5 -13.5t15 -11.5t16 -8.5t20 -8.5t19.5 -8.5zM318 291v-195q45 9 74 35t29 68q0 17 -7 31t-14.5 22t-25.5 17t-26.5 12t-29.5 10z" />
    <glyph glyph-name="percent" unicode="%" horiz-adv-x="907" 
d="M505 174q0 77 54.5 131.5t131.5 54.5t131.5 -54.5t54.5 -131.5t-54.5 -131.5t-131.5 -54.5t-131.5 54.5t-54.5 131.5zM781 174q0 38 -26.5 64t-63.5 26t-63.5 -26t-26.5 -64t26.5 -64t63.5 -26t63.5 26t26.5 64zM30 534q0 77 54.5 131.5t131.5 54.5t131.5 -54.5
t54.5 -131.5t-54.5 -131.5t-131.5 -54.5t-131.5 54.5t-54.5 131.5zM306 534q0 38 -26 64t-64 26t-64 -26t-26 -64t26 -64t64 -26t64 26t26 64zM205 6l416 734l83 -38l-416 -734z" />
    <glyph glyph-name="ampersand" unicode="&#x26;" horiz-adv-x="741" 
d="M716 372l-142 -205l153 -167h-155l-75 81q-84 -99 -209 -99q-99 0 -169.5 55.5t-70.5 152.5q0 68 43 120.5t110 78.5q-28 31 -42.5 50t-26.5 49.5t-12 63.5q0 83 58.5 128.5t144.5 45.5t143 -43t57 -125q0 -110 -141 -183l114 -123l79 120h141zM325 618q-35 0 -60 -20
t-25 -51q0 -40 67 -103q96 52 96 108q0 28 -22.5 47t-55.5 19zM422 160l-145 158q-30 -18 -47.5 -31t-33.5 -37.5t-16 -52.5q0 -46 33 -76.5t79 -30.5q26 0 51 11.5t40.5 24t38.5 34.5z" />
    <glyph glyph-name="quotesingle" unicode="'" horiz-adv-x="296" 
d="M97 444v264h102v-264h-102z" />
    <glyph glyph-name="parenleft" unicode="(" horiz-adv-x="296" 
d="M194 732l85 -52l-1 -4q-128 -178 -128 -388q0 -211 128 -389l-84 -55q-146 202 -146 444t146 444z" />
    <glyph glyph-name="parenright" unicode=")" horiz-adv-x="296" 
d="M102 -156l-85 52l1 4q128 178 128 388t-128 388l84 56q146 -202 146 -444t-146 -444z" />
    <glyph glyph-name="asterisk" unicode="*" horiz-adv-x="463" 
d="M274 708v-142l135 44l26 -80l-136 -44l86 -117l-69 -50l-86 118l-84 -115l-67 51l86 113l-137 47l26 80l136 -47v142h84z" />
    <glyph glyph-name="plus" unicode="+" horiz-adv-x="666" 
d="M62 354h220v220h102v-220h220v-102h-220v-220h-102v220h-220v102z" />
    <glyph glyph-name="comma" unicode="," horiz-adv-x="296" 
d="M38 -126l70 264h122l-85 -264h-107z" />
    <glyph glyph-name="hyphen" unicode="-" horiz-adv-x="315" 
d="M281 297v-102h-247v102h247z" />
    <glyph glyph-name="period" unicode="." horiz-adv-x="296" 
d="M68 70q0 32 23.5 55t56.5 23t56.5 -22t23.5 -54t-23.5 -55t-56.5 -23q-32 0 -56 22t-24 54z" />
    <glyph glyph-name="slash" unicode="/" horiz-adv-x="389" 
d="M386 726l-312 -774l-83 30l312 776z" />
    <glyph glyph-name="zero" unicode="0" horiz-adv-x="592" 
d="M40 354q0 80 13 143t36 101t48.5 64t57 38t54.5 16t47 4t47 -4t54.5 -16t57 -38t48.5 -64t36 -101t13 -143t-13 -143t-36 -101t-48.5 -64t-57 -38t-54.5 -16t-47 -4t-47 4t-54.5 16t-57 38t-48.5 64t-36 101t-13 143zM160 354q0 -31 2.5 -60.5t11 -66t22.5 -63t40 -44.5
t60 -18t60 18t40 44.5t22.5 63t11 66t2.5 60.5t-2.5 60.5t-11 66t-22.5 63t-40 44.5t-60 18t-60 -18t-40 -44.5t-22.5 -63t-11 -66t-2.5 -60.5z" />
    <glyph glyph-name="one" unicode="1" horiz-adv-x="592" 
d="M268 0v570l-133 -123l-70 83l214 178h109v-708h-120z" />
    <glyph glyph-name="two" unicode="2" horiz-adv-x="592" 
d="M59 0v127l275 266q23 22 35 35.5t25 37.5t13 47q0 42 -30 67.5t-73 25.5q-44 0 -73.5 -26t-35.5 -70l-126 10q9 96 72.5 148t162.5 52q101 0 165 -51.5t64 -149.5q0 -62 -28 -110.5t-81 -97.5l-219 -203h328v-108h-474z" />
    <glyph glyph-name="three" unicode="3" horiz-adv-x="592" 
d="M222 315v108h31q64 0 101 19t37 77q0 41 -28.5 67t-72.5 26q-36 0 -64.5 -21t-41.5 -57l-127 34q22 76 83.5 114t143.5 38q97 0 162 -49.5t65 -139.5q0 -58 -32.5 -102t-88.5 -58v-2q66 -9 102 -56.5t36 -115.5q0 -97 -69.5 -153t-169.5 -56q-92 0 -156.5 40.5
t-86.5 125.5l128 34q24 -92 115 -92q49 0 84 31.5t35 79.5q0 108 -157 108h-29z" />
    <glyph glyph-name="four" unicode="4" horiz-adv-x="592" 
d="M335 0v144h-301v119l285 445h136v-456h103v-108h-103v-144h-120zM335 252v286h-2l-177 -286h179z" />
    <glyph glyph-name="five" unicode="5" horiz-adv-x="592" 
d="M505 708v-108h-285l-3 -141q29 9 76 9q105 0 170.5 -64.5t65.5 -170.5q0 -112 -72.5 -178.5t-183.5 -66.5q-86 0 -145.5 41t-83.5 121l126 34q26 -82 116 -82q54 0 88.5 34.5t34.5 86.5q0 70 -47 103.5t-119 33.5q-80 0 -148 -34l7 382h403z" />
    <glyph glyph-name="six" unicode="6" horiz-adv-x="592" 
d="M291 708h146l-170 -262l2 -2q21 12 66 12q92 0 152.5 -66t60.5 -160q0 -109 -71 -175.5t-181 -66.5q-113 0 -182.5 65t-69.5 176q0 89 66 194zM170 231q0 -53 38 -91t91 -38t91 38t38 91t-38 91t-91 38t-91 -38t-38 -91z" />
    <glyph glyph-name="seven" unicode="7" horiz-adv-x="592" 
d="M42 594v114h481v-110l-283 -598h-141l289 594h-346z" />
    <glyph glyph-name="eight" unicode="8" horiz-adv-x="592" 
d="M296 720q93 0 155 -50t62 -136q0 -58 -27.5 -101t-79.5 -58v-2q53 -11 91 -60t38 -112q0 -101 -67.5 -157t-171.5 -56t-171.5 56t-67.5 157q0 63 38.5 112t90.5 60v2q-52 15 -79.5 58t-27.5 101q0 86 62 136t155 50zM296 618q-44 0 -70.5 -27.5t-26.5 -68.5
q0 -43 26.5 -71t70.5 -28q40 0 68.5 28.5t28.5 70.5q0 40 -28 68t-69 28zM296 327q-50 0 -84.5 -31.5t-34.5 -79.5q0 -50 33.5 -82t85.5 -32t85.5 32t33.5 82q0 48 -34.5 79.5t-84.5 31.5z" />
    <glyph glyph-name="nine" unicode="9" horiz-adv-x="592" 
d="M301 0h-146l170 262l-2 2q-21 -12 -66 -12q-92 0 -152.5 66t-60.5 160q0 109 71 175.5t181 66.5q113 0 182.5 -65t69.5 -176q0 -89 -66 -194zM422 477q0 53 -38 91t-91 38t-91 -38t-38 -91t38 -91t91 -38t91 38t38 91z" />
    <glyph glyph-name="colon" unicode=":" horiz-adv-x="296" 
d="M68 70q0 32 23.5 55t56.5 23t56.5 -22t23.5 -54t-23.5 -55t-56.5 -23q-32 0 -56 22t-24 54zM68 409q0 32 23.5 55t56.5 23t56.5 -22t23.5 -54t-23.5 -55t-56.5 -23q-32 0 -56 22t-24 54z" />
    <glyph glyph-name="semicolon" unicode=";" horiz-adv-x="296" 
d="M38 -126l70 264h122l-85 -264h-107zM68 409q0 32 23.5 55t56.5 23t56.5 -22t23.5 -54t-23.5 -55t-56.5 -23q-32 0 -56 22t-24 54z" />
    <glyph glyph-name="less" unicode="&#x3c;" horiz-adv-x="666" 
d="M586 42l-506 225v72l506 225v-110l-338 -151l338 -151v-110z" />
    <glyph glyph-name="equal" unicode="=" horiz-adv-x="666" 
d="M62 444h542v-102h-542v102zM62 264h542v-102h-542v102z" />
    <glyph glyph-name="greater" unicode="&#x3e;" horiz-adv-x="666" 
d="M80 564l506 -225v-72l-506 -225v110l338 151l-338 151v110z" />
    <glyph glyph-name="question" unicode="?" horiz-adv-x="519" 
d="M330 209h-120v55q0 42 10 62.5t44 54.5l77 78q25 25 25 65q0 39 -25.5 63.5t-64.5 24.5q-41 0 -68.5 -28t-31.5 -70l-128 10q11 94 74 148t159 54q92 0 151.5 -51.5t59.5 -143.5q0 -38 -15 -71t-32.5 -52.5t-50.5 -50.5q-7 -6 -11 -10q-23 -22 -31 -31t-15 -26.5
t-7 -42.5v-38zM190 70q0 32 23.5 55t56.5 23t56.5 -22t23.5 -54t-23.5 -55t-56.5 -23q-32 0 -56 22t-24 54z" />
    <glyph glyph-name="at" unicode="@" horiz-adv-x="800" 
d="M401 456q-49 0 -77.5 -35t-28.5 -86q0 -92 83 -92q52 0 74.5 36t22.5 85q0 41 -19 66.5t-55 25.5zM617 133h110q-53 -73 -133.5 -112t-173.5 -39q-162 0 -275 105.5t-113 265.5q0 159 111.5 266t270.5 107q90 0 169.5 -37t132 -114t52.5 -178q0 -60 -17.5 -106.5
t-43 -71.5t-58 -41t-57 -20.5t-46.5 -4.5q-39 0 -58.5 16t-20.5 38h-2q-52 -54 -128 -54q-64 0 -104 47t-40 121q0 92 55 158.5t145 66.5q80 0 108 -57h2l8 45h94l-37 -197q-9 -43 -9 -57q0 -37 27 -37q35 0 60.5 38t25.5 111q0 117 -71.5 180.5t-189.5 63.5
q-124 0 -200.5 -79.5t-76.5 -203.5q0 -129 82.5 -205t211.5 -76q112 0 189 61z" />
    <glyph glyph-name="A" unicode="A" horiz-adv-x="722" 
d="M0 0l308 708h109l305 -708h-144l-66 162h-307l-64 -162h-141zM248 270h220l-109 288z" />
    <glyph glyph-name="B" unicode="B" horiz-adv-x="648" 
d="M79 0v708h276q90 0 153.5 -44t63.5 -134q0 -58 -33 -98t-90 -57v-2q67 -8 110 -55.5t43 -115.5q0 -55 -22.5 -96t-62 -63t-85 -32.5t-98.5 -10.5h-255zM205 600v-180h115q61 0 93.5 24t32.5 65q0 91 -137 91h-104zM205 312v-204h116q155 0 155 104q0 54 -36 77t-114 23
h-121z" />
    <glyph glyph-name="C" unicode="C" horiz-adv-x="685" 
d="M663 614l-98 -72q-66 70 -149 70q-108 0 -175.5 -72.5t-67.5 -180.5q0 -115 67.5 -189t175.5 -74q92 0 159 86l104 -74q-92 -126 -264 -126q-165 0 -269.5 102t-104.5 267q0 169 104.5 272t269.5 103q151 0 248 -112z" />
    <glyph glyph-name="D" unicode="D" horiz-adv-x="759" 
d="M79 0v708h279q150 0 255 -92t105 -262q0 -87 -34.5 -157t-90 -111.5t-120 -63.5t-130.5 -22h-264zM205 114h94q128 0 207.5 59t79.5 181q0 123 -71.5 181.5t-194.5 58.5h-115v-480z" />
    <glyph glyph-name="E" unicode="E" horiz-adv-x="611" 
d="M79 0v708h469v-114h-343v-174h325v-114h-325v-192h361v-114h-487z" />
    <glyph glyph-name="F" unicode="F" horiz-adv-x="574" 
d="M79 0v708h457v-114h-331v-186h312v-114h-312v-294h-126z" />
    <glyph glyph-name="G" unicode="G" horiz-adv-x="778" 
d="M708 414v-362q-131 -70 -293 -70q-165 0 -269.5 102t-104.5 267q0 169 104.5 272t269.5 103q179 0 279 -89l-93 -94q-71 69 -185 69q-108 0 -175.5 -72.5t-67.5 -180.5q0 -115 67.5 -189t175.5 -74q101 0 166 37v167h-145v114h271z" />
    <glyph glyph-name="H" unicode="H" horiz-adv-x="741" 
d="M79 0v708h126v-282h331v282h126v-708h-126v312h-331v-312h-126z" />
    <glyph glyph-name="I" unicode="I" horiz-adv-x="278" 
d="M76 0v708h126v-708h-126z" />
    <glyph glyph-name="J" unicode="J" horiz-adv-x="500" 
d="M426 708v-512q0 -90 -56 -152t-157 -62q-176 0 -208 163l118 28q6 -35 28.5 -56t55.5 -21q51 0 72 34.5t21 102.5v475h126z" />
    <glyph glyph-name="K" unicode="K" horiz-adv-x="685" 
d="M79 0v708h126v-300h6l293 300h170l-331 -327l353 -381h-177l-307 348h-7v-348h-126z" />
    <glyph glyph-name="L" unicode="L" horiz-adv-x="519" 
d="M79 0v708h126v-594h301v-114h-427z" />
    <glyph glyph-name="M" unicode="M" horiz-adv-x="926" 
d="M82 0v708h192l189 -496l191 496h190v-708h-120v588h-2l-215 -588h-88l-215 588h-2v-588h-120z" />
    <glyph glyph-name="N" unicode="N" horiz-adv-x="796" 
d="M79 0v708h167l343 -526h2v526h126v-708h-160l-350 543h-2v-543h-126z" />
    <glyph glyph-name="O" unicode="O" horiz-adv-x="833" 
d="M41 351q0 169 104.5 272t269.5 103q167 3 272 -99.5t105 -271.5q0 -165 -105 -267.5t-272 -105.5q-165 0 -269.5 102t-104.5 267zM173 359q0 -115 67.5 -189t175.5 -74q109 0 176.5 74t67.5 189q0 108 -68 180.5t-176 72.5t-175.5 -72.5t-67.5 -180.5z" />
    <glyph glyph-name="P" unicode="P" horiz-adv-x="611" 
d="M79 0v708h238q115 0 188 -48t73 -157q0 -52 -15.5 -90t-40.5 -61t-63 -36.5t-76.5 -18t-87.5 -4.5h-90v-293h-126zM205 401h76q27 0 45.5 1t43 6.5t39.5 15.5t26 29.5t11 47.5q0 99 -151 99h-90v-199z" />
    <glyph glyph-name="Q" unicode="Q" horiz-adv-x="852" 
d="M839 102v-102h-412q-169 0 -277.5 100t-108.5 269q0 154 109 255.5t263 101.5t263 -101.5t109 -255.5q0 -180 -149 -265v-2h203zM410 612q-103 0 -170 -70t-67 -176q0 -109 68 -180.5t171 -71.5q105 0 173 71.5t68 180.5q0 106 -68 176t-175 70z" />
    <glyph glyph-name="R" unicode="R" horiz-adv-x="630" 
d="M79 0v708h246q43 0 80 -5.5t71.5 -20t59 -37t39 -58.5t14.5 -82q0 -78 -43 -129.5t-121 -62.5l188 -313h-152l-164 300h-92v-300h-126zM205 408h98q26 0 44 1.5t40.5 7t36.5 15.5t23.5 29t9.5 45q0 30 -12.5 50t-35.5 29t-44.5 12t-50.5 3h-109v-192z" />
    <glyph glyph-name="S" unicode="S" horiz-adv-x="574" 
d="M518 653l-92 -97q-40 56 -124 56q-48 0 -82 -23t-34 -68q0 -33 25 -55t62 -33t81 -27.5t81 -36t62 -61t25 -100.5q0 -109 -74 -167.5t-185 -58.5q-151 0 -232 96l95 92q49 -74 140 -74q48 0 86 25.5t38 71.5q0 31 -18.5 53t-48 34.5t-65.5 23.5t-72 25.5t-65.5 35.5
t-48 58.5t-18.5 88.5q0 103 77 158.5t184 55.5q126 0 203 -73z" />
    <glyph glyph-name="T" unicode="T" horiz-adv-x="574" 
d="M224 0v594h-217v114h560v-114h-217v-594h-126z" />
    <glyph glyph-name="U" unicode="U" horiz-adv-x="722" 
d="M646 708v-448q0 -126 -80.5 -202t-204.5 -76t-204.5 76t-80.5 202v448h126v-444q0 -63 38.5 -112.5t120.5 -49.5t120.5 49.5t38.5 112.5v444h126z" />
    <glyph glyph-name="V" unicode="V" horiz-adv-x="667" 
d="M275 0l-278 708h145l193 -535l199 535h136l-286 -708h-109z" />
    <glyph glyph-name="W" unicode="W" horiz-adv-x="981" 
d="M209 0l-209 708h138l133 -510h2l159 510h124l156 -510h2l139 510h128l-206 -708h-120l-164 539h-2l-164 -539h-116z" />
    <glyph glyph-name="X" unicode="X" horiz-adv-x="685" 
d="M0 0l252 370l-236 338h159l167 -262l165 262h153l-232 -338l257 -370h-160l-187 299l-186 -299h-152z" />
    <glyph glyph-name="Y" unicode="Y" horiz-adv-x="630" 
d="M252 0v303l-266 405h158l174 -282l176 282h150l-266 -405v-303h-126z" />
    <glyph glyph-name="Z" unicode="Z" horiz-adv-x="611" 
d="M35 0v114l378 480h-372v114h529v-114l-381 -480h387v-114h-541z" />
    <glyph glyph-name="bracketleft" unicode="[" horiz-adv-x="278" 
d="M258 732v-78h-90v-732h90v-78h-192v888h192z" />
    <glyph glyph-name="backslash" unicode="\" horiz-adv-x="389" 
d="M3 726l83 32l312 -776l-83 -30z" />
    <glyph glyph-name="bracketright" unicode="]" horiz-adv-x="278" 
d="M20 -156v78h90v732h-90v78h192v-888h-192z" />
    <glyph glyph-name="asciicircum" unicode="^" horiz-adv-x="666" 
d="M187 343h-118l223 365h82l223 -365h-118l-147 239z" />
    <glyph glyph-name="underscore" unicode="_" horiz-adv-x="500" 
d="M500 -125h-500v50h500v-50z" />
    <glyph glyph-name="grave" unicode="`" 
d="M78 708l99 -144h-94l-141 144h136z" />
    <glyph glyph-name="a" unicode="a" horiz-adv-x="537" 
d="M368 0v66h-3q-49 -78 -154 -78q-72 0 -123.5 38t-51.5 106q0 38 13.5 66.5t39 46t53 29t65.5 17t66.5 7t64.5 1.5h30v13q0 43 -30 66.5t-80 23.5q-75 0 -128 -50l-63 63q76 77 204 77q42 0 75.5 -9t55 -21.5t36.5 -33.5t22 -38t11 -42t4.5 -38t0.5 -34v-276h-108z
M361 188v27h-25q-180 0 -180 -74q0 -31 25.5 -47t58.5 -16q60 0 90.5 29t30.5 81z" />
    <glyph glyph-name="b" unicode="b" horiz-adv-x="630" 
d="M68 0v756h120v-337h3q59 73 163 73q102 0 167 -72t65 -180q0 -109 -64.5 -180.5t-172.5 -71.5q-114 0 -165 84h-2v-72h-114zM466 240q0 59 -38.5 101.5t-102.5 42.5t-102.5 -42.5t-38.5 -101.5t38.5 -101.5t102.5 -42.5t102.5 42.5t38.5 101.5z" />
    <glyph glyph-name="c" unicode="c" horiz-adv-x="482" 
d="M479 419l-83 -83q-46 48 -91 48q-64 0 -102.5 -42.5t-38.5 -101.5t38.5 -101.5t102.5 -42.5q59 0 93 45l80 -86q-33 -33 -83.5 -50t-89.5 -17q-111 0 -186 70.5t-75 181.5t75 181.5t186 70.5q108 0 174 -73z" />
    <glyph glyph-name="d" unicode="d" horiz-adv-x="630" 
d="M448 0v72h-2q-51 -84 -165 -84q-108 0 -172.5 71.5t-64.5 180.5q0 108 65 180t167 72q104 0 163 -73h3v337h120v-756h-114zM164 240q0 -59 38.5 -101.5t102.5 -42.5t102.5 42.5t38.5 101.5t-38.5 101.5t-102.5 42.5t-102.5 -42.5t-38.5 -101.5z" />
    <glyph glyph-name="e" unicode="e" horiz-adv-x="574" 
d="M530 198h-366q6 -52 42 -83t87 -31q76 0 129 65l86 -65q-78 -96 -203 -96q-111 0 -186 70.5t-75 181.5t75 181.5t186 70.5q102 0 163.5 -69t61.5 -192v-33zM164 288h246q-1 53 -33.5 83.5t-88.5 30.5q-52 0 -84.5 -30.5t-39.5 -83.5z" />
    <glyph glyph-name="f" unicode="f" horiz-adv-x="352" 
d="M111 0v378h-99v102h99v68q0 110 37.5 165t141.5 55q41 0 76 -7l-8 -102q-30 7 -50 7q-46 0 -61.5 -26t-15.5 -73v-87h111v-102h-111v-378h-120z" />
    <glyph glyph-name="g" unicode="g" horiz-adv-x="630" 
d="M448 480h114v-437q0 -134 -67.5 -208.5t-203.5 -74.5q-148 0 -238 79l72 98q75 -69 165 -69q82 0 117 42t35 119v35h-2q-25 -34 -67.5 -52t-89.5 -18q-106 0 -172.5 71t-66.5 175q0 109 64.5 180.5t172.5 71.5q114 0 165 -84h2v72zM306 384q-63 0 -102.5 -39.5
t-39.5 -103.5q0 -58 40.5 -98.5t100.5 -40.5q65 0 104 40t39 101q0 63 -38.5 102t-103.5 39z" />
    <glyph glyph-name="h" unicode="h" horiz-adv-x="574" 
d="M188 756v-343h2q16 33 52.5 56t88.5 23q90 0 132.5 -53.5t42.5 -135.5v-303h-120v243q0 26 -2.5 45.5t-10 44t-26.5 38t-49 13.5q-56 0 -83 -34.5t-27 -87.5v-262h-120v756h120z" />
    <glyph glyph-name="i" unicode="i" 
d="M70 0v480h120v-480h-120zM53 643q0 29 22 50.5t54 21.5q33 0 55.5 -20.5t22.5 -51.5t-22.5 -51.5t-55.5 -20.5q-32 0 -54 21.5t-22 50.5z" />
    <glyph glyph-name="j" unicode="j" 
d="M70 480h120v-509q0 -49 -6.5 -84t-23 -65.5t-49.5 -46t-83 -15.5q-38 0 -65 9l9 104q22 -5 38 -5q17 0 29 7t18 15.5t9 25t3.5 26.5t0.5 28v510zM53 643q0 29 22 50.5t54 21.5q33 0 55.5 -20.5t22.5 -51.5t-22.5 -51.5t-55.5 -20.5q-32 0 -54 21.5t-22 50.5z" />
    <glyph glyph-name="k" unicode="k" horiz-adv-x="537" 
d="M68 0v756h120v-475l185 199h154l-206 -218l219 -262h-159l-191 245h-2v-245h-120z" />
    <glyph glyph-name="l" unicode="l" 
d="M70 0v756h120v-756h-120z" />
    <glyph glyph-name="m" unicode="m" horiz-adv-x="870" 
d="M63 0v480h114v-75h2q41 87 147 87q113 0 150 -89q51 89 158 89q91 0 132 -56t41 -150v-286h-120v272q0 112 -89 112q-52 0 -77.5 -36t-25.5 -88v-260h-120v286q0 98 -82 98q-56 0 -83 -34.5t-27 -87.5v-262h-120z" />
    <glyph glyph-name="n" unicode="n" horiz-adv-x="574" 
d="M68 0v480h114v-77h2q41 89 147 89q90 0 132.5 -53.5t42.5 -135.5v-303h-120v243q0 26 -2.5 45.5t-10 44t-26.5 38t-49 13.5q-56 0 -83 -34.5t-27 -87.5v-262h-120z" />
    <glyph glyph-name="o" unicode="o" horiz-adv-x="610" 
d="M44 240q0 111 75 181.5t186 70.5t186 -70.5t75 -181.5t-75 -181.5t-186 -70.5t-186 70.5t-75 181.5zM164 240q0 -59 38.5 -101.5t102.5 -42.5t102.5 42.5t38.5 101.5t-38.5 101.5t-102.5 42.5t-102.5 -42.5t-38.5 -101.5z" />
    <glyph glyph-name="p" unicode="p" horiz-adv-x="630" 
d="M68 -228v708h114v-72h2q51 84 165 84q108 0 172.5 -71.5t64.5 -180.5q0 -108 -65 -180t-167 -72q-104 0 -163 73h-3v-289h-120zM466 240q0 59 -38.5 101.5t-102.5 42.5t-102.5 -42.5t-38.5 -101.5t38.5 -101.5t102.5 -42.5t102.5 42.5t38.5 101.5z" />
    <glyph glyph-name="q" unicode="q" horiz-adv-x="630" 
d="M562 480v-708h-120v289h-3q-59 -73 -163 -73q-102 0 -167 72t-65 180q0 109 64.5 180.5t172.5 71.5q114 0 165 -84h2v72h114zM164 240q0 -59 38.5 -101.5t102.5 -42.5t102.5 42.5t38.5 101.5t-38.5 101.5t-102.5 42.5t-102.5 -42.5t-38.5 -101.5z" />
    <glyph glyph-name="r" unicode="r" horiz-adv-x="389" 
d="M68 0v480h120v-76h2q20 41 57.5 64.5t84.5 23.5q18 0 43 -7v-116q-36 9 -58 9q-39 0 -67 -14.5t-40 -36.5t-17 -39.5t-5 -30.5v-257h-120z" />
    <glyph glyph-name="s" unicode="s" horiz-adv-x="444" 
d="M404 419l-80 -72q-35 49 -94 49q-27 0 -48.5 -13t-21.5 -38q0 -23 26.5 -35.5t65 -20t76.5 -19.5t64.5 -44t26.5 -84q0 -79 -61.5 -116.5t-145.5 -37.5q-121 0 -187 74l80 75q54 -59 114 -59q30 0 55 14.5t25 40.5q0 27 -26.5 41t-64.5 21.5t-76.5 18.5t-65 41.5
t-26.5 81.5q0 75 56.5 115t136.5 40q117 0 171 -73z" />
    <glyph glyph-name="t" unicode="t" horiz-adv-x="389" 
d="M111 378h-99v102h99v139h120v-139h132v-102h-132v-210q0 -39 14.5 -58.5t52.5 -19.5q45 0 65 15v-101q-33 -16 -95 -16q-91 0 -124 40t-33 130v220z" />
    <glyph glyph-name="u" unicode="u" horiz-adv-x="574" 
d="M506 480v-480h-114v77h-2q-41 -89 -147 -89q-90 0 -132.5 53.5t-42.5 135.5v303h120v-243q0 -26 2.5 -45.5t10 -44t26.5 -38t49 -13.5q56 0 83 34.5t27 87.5v262h120z" />
    <glyph glyph-name="v" unicode="v" horiz-adv-x="519" 
d="M199 0l-196 480h131l128 -336h2l129 336h123l-189 -480h-128z" />
    <glyph glyph-name="w" unicode="w" horiz-adv-x="796" 
d="M170 0l-167 480h130l104 -336h2l97 336h130l104 -336h2l100 336h121l-163 -480h-119l-114 328h-2l-101 -328h-124z" />
    <glyph glyph-name="x" unicode="x" horiz-adv-x="537" 
d="M-1 0l193 258l-166 222h146l96 -144l104 144h137l-164 -222l193 -258h-146l-125 172l-126 -172h-142z" />
    <glyph glyph-name="y" unicode="y" horiz-adv-x="519" 
d="M208 -4l-205 484h132l134 -333h2l120 333h125l-227 -583q-28 -72 -67.5 -104.5t-115.5 -32.5q-47 0 -92 12l15 108q33 -12 61 -12q42 0 60.5 15.5t34.5 55.5z" />
    <glyph glyph-name="z" unicode="z" horiz-adv-x="482" 
d="M34 0v111l257 271v2h-245v96h390v-109l-260 -275h272v-96h-414z" />
    <glyph glyph-name="braceleft" unicode="{" horiz-adv-x="278" 
d="M0 244v88q31 0 62.5 16.5t31.5 53.5v198q0 61 43.5 96.5t84.5 35.5h91v-84h-55q-62 0 -62 -70v-188q-1 -51 -31.5 -74t-66.5 -27v-2q97 -9 98 -107v-182q0 -70 62 -70h55v-84h-91q-41 0 -84.5 35.5t-43.5 96.5v191q0 41 -31.5 59t-62.5 18z" />
    <glyph glyph-name="bar" unicode="|" horiz-adv-x="222" 
d="M60 750h102v-1000h-102v1000z" />
    <glyph glyph-name="braceright" unicode="}" horiz-adv-x="278" 
d="M278 332v-88q-31 0 -62.5 -16.5t-31.5 -53.5v-198q0 -61 -43.5 -96.5t-84.5 -35.5h-91v84h55q62 0 62 70v188q1 51 31.5 74t66.5 27v2q-97 9 -98 107v182q0 70 -62 70h-55v84h91q41 0 84.5 -35.5t43.5 -96.5v-191q0 -41 31.5 -59t62.5 -18z" />
    <glyph glyph-name="asciitilde" unicode="~" horiz-adv-x="666" 
d="M529 385l36 -84q-20 -27 -33 -42t-38 -29.5t-54 -14.5q-42 0 -102 33q-62 35 -115 35q-51 0 -86 -68l-36 84q45 86 122 86q44 0 116 -32q6 -2 26.5 -11.5t29.5 -13t22.5 -7.5t22.5 -4q19 0 37.5 12.5t26 22t25.5 33.5z" />
    <glyph glyph-name="uni00A0" unicode="&#xa0;" horiz-adv-x="296" 
 />
    <glyph glyph-name="exclamdown" unicode="&#xa1;" horiz-adv-x="296" 
d="M88 -222v487h120v-487h-120zM228 416q0 -32 -23.5 -55t-56.5 -23t-56.5 22t-23.5 54t23.5 55t56.5 23q32 0 56 -22t24 -54z" />
    <glyph glyph-name="cent" unicode="&#xa2;" horiz-adv-x="592" 
d="M354 559v-67q115 -4 170 -69l-77 -78q-40 42 -93 45v-300q56 0 97 46l73 -79q-60 -65 -170 -69v-72h-54v72q-101 9 -161.5 79.5t-60.5 173.5q0 104 59.5 170.5t162.5 80.5v67h54zM300 90v299q-53 -11 -80.5 -51.5t-27.5 -97.5q0 -54 28 -95.5t80 -54.5z" />
    <glyph glyph-name="sterling" unicode="&#xa3;" horiz-adv-x="592" 
d="M66 0v96h102v219h-102v84h102v100q0 53 22.5 101.5t77 84t132.5 35.5q120 0 191 -64l-81 -87q-46 43 -106 43q-53 0 -84.5 -36.5t-31.5 -86.5v-90h162v-84h-162v-219h253v-96h-475z" />
    <glyph glyph-name="currency" unicode="&#xa4;" horiz-adv-x="592" 
d="M96 95l-60 60l49 49q-49 66 -49 151q0 83 49 151l-49 49l60 59l49 -48q67 48 151 48t151 -48l49 48l60 -59l-49 -49q49 -67 49 -151q0 -83 -49 -151l49 -49l-60 -60l-49 49q-66 -49 -151 -49q-84 0 -151 49zM150 355q0 -69 39.5 -110.5t106.5 -41.5t106.5 41.5
t39.5 110.5t-39.5 110t-106.5 41t-106.5 -41t-39.5 -110z" />
    <glyph glyph-name="yen" unicode="&#xa5;" horiz-adv-x="592" 
d="M236 0v177h-170v78h170v48l-19 34h-151v78h108l-162 293h135l155 -294l149 294h129l-162 -293h108v-78h-151l-19 -34v-48h170v-78h-170v-177h-120z" />
    <glyph glyph-name="brokenbar" unicode="&#xa6;" horiz-adv-x="222" 
d="M60 675h102v-350h-102v350zM60 175h102v-350h-102v350z" />
    <glyph glyph-name="section" unicode="&#xa7;" horiz-adv-x="593" 
d="M503 625l-105 -59q-10 29 -36.5 46.5t-58.5 17.5q-33 0 -57 -17t-24 -49q0 -30 31 -53t75 -41t88 -39.5t75 -59.5t31 -91q0 -41 -24 -75.5t-61 -52.5q61 -45 61 -119q0 -57 -34.5 -98.5t-84 -60t-104.5 -18.5q-167 0 -222 123l107 52q10 -36 42 -54.5t72 -18.5
q36 0 64 15.5t28 49.5q0 30 -31 52.5t-75 39.5t-88 37.5t-75 57.5t-31 89q0 96 96 148q-66 42 -66 114q0 78 61.5 121.5t142.5 43.5q65 0 120.5 -24.5t82.5 -76.5zM265 239l97 -45q19 10 32.5 30t13.5 40q0 12 -4 22.5t-8 17.5t-15.5 15.5t-15.5 11t-20 11.5t-18 10l-89 42
q-29 -13 -43.5 -28t-14.5 -42q0 -23 15.5 -41t28.5 -24.5t41 -19.5z" />
    <glyph glyph-name="dieresis" unicode="&#xa8;" 
d="M-50 636q0 29 22 50.5t54 21.5q33 0 55.5 -20.5t22.5 -51.5t-22.5 -51.5t-55.5 -20.5q-32 0 -54 21.5t-22 50.5zM156 636q0 29 22 50.5t54 21.5q33 0 55.5 -20.5t22.5 -51.5t-22.5 -51.5t-55.5 -20.5q-32 0 -54 21.5t-22 50.5z" />
    <glyph glyph-name="copyright" unicode="&#xa9;" horiz-adv-x="800" 
d="M494 297h94q-10 -73 -60 -113.5t-118 -40.5q-92 0 -145.5 60.5t-53.5 153.5q0 95 51.5 152.5t145.5 57.5q70 0 119.5 -37.5t60.5 -107.5h-94q-12 61 -78 61q-55 0 -82 -33.5t-27 -90.5q0 -58 28 -95t79 -37q76 0 80 70zM28 354q0 154 109 263t263 109t263 -109t109 -263
t-109 -263t-263 -109t-263 109t-109 263zM124 354q0 -121 80 -204.5t196 -83.5t196 83.5t80 204.5t-80 204.5t-196 83.5t-196 -83.5t-80 -204.5z" />
    <glyph glyph-name="ordfeminine" unicode="&#xaa;" horiz-adv-x="349" 
d="M243 431v39h-2q-27 -45 -103 -45q-22 0 -44.5 6t-44 27.5t-21.5 54.5t18.5 55t52.5 31t61.5 11.5t65.5 2.5h17v8q0 33 -69 33q-45 0 -83 -32l-43 53q51 45 138 45q71 0 103 -29t32 -91v-169h-78zM239 553h-28q-99 0 -99 -37q0 -14 15 -22.5t35 -8.5q77 0 77 62v6z" />
    <glyph glyph-name="guillemotleft" unicode="&#xab;" horiz-adv-x="519" 
d="M257 421l-115 -173l116 -175l-76 -51l-152 226l152 224zM480 421l-115 -173l116 -175l-76 -51l-152 226l152 224z" />
    <glyph glyph-name="logicalnot" unicode="&#xac;" horiz-adv-x="666" 
d="M502 147v195h-440v102h542v-297h-102z" />
    <glyph glyph-name="uni00AD" unicode="&#xad;" horiz-adv-x="315" 
d="M281 297v-102h-247v102h247z" />
    <glyph glyph-name="registered" unicode="&#xae;" horiz-adv-x="800" 
d="M257 163v390h125q176 0 176 -115q0 -49 -27 -82t-61 -38l100 -155h-105l-89 150h-23v-150h-96zM352 475v-84h47q63 0 63 42t-63 42h-47zM28 354q0 154 109 263t263 109t263 -109t109 -263t-109 -263t-263 -109t-263 109t-109 263zM124 354q0 -121 80 -204.5t196 -83.5
t196 83.5t80 204.5t-80 204.5t-196 83.5t-196 -83.5t-80 -204.5z" />
    <glyph glyph-name="macron" unicode="&#xaf;" 
d="M290 673v-78h-320v78h320z" />
    <glyph glyph-name="degree" unicode="&#xb0;" horiz-adv-x="400" 
d="M40 560q0 66 47 113t113 47t113 -47t47 -113t-47 -113t-113 -47t-113 47t-47 113zM118 560q0 -34 24 -58t58 -24t58 24t24 58t-24 58t-58 24t-58 -24t-24 -58z" />
    <glyph glyph-name="plusminus" unicode="&#xb1;" horiz-adv-x="666" 
d="M283 431v143h102v-143h219v-102h-219v-143h-102v143h-221v102h221zM62 32v102h542v-102h-542z" />
    <glyph glyph-name="twosuperior" unicode="&#xb2;" horiz-adv-x="385" 
d="M31 289v95l180 152q41 36 41 55q0 39 -56 39q-26 0 -43 -15.5t-19 -38.5l-96 6q4 69 48 103.5t115 34.5q69 0 111 -33t42 -95q0 -65 -58 -109l-140 -108v-2h198v-84h-323z" />
    <glyph glyph-name="threesuperior" unicode="&#xb3;" horiz-adv-x="385" 
d="M146 468v84h32q70 0 70 45q0 33 -53 33q-50 0 -61 -44l-103 20q27 114 164 114q65 0 110 -29.5t45 -84.5q0 -36 -20.5 -61t-58.5 -32v-2q40 -5 63.5 -33.5t23.5 -66.5q0 -62 -47 -95t-119 -33q-139 0 -165 118l103 22q10 -50 62 -50q64 0 64 48q0 22 -14 32.5t-29.5 12.5
t-43.5 2h-23z" />
    <glyph glyph-name="acute" unicode="&#xb4;" 
d="M83 564l99 144h136l-141 -144h-94z" />
    <glyph glyph-name="mu" unicode="&#xb5;" horiz-adv-x="574" 
d="M68 480h120v-243q0 -26 2.5 -45.5t10 -44t26.5 -38t49 -13.5q56 0 83 34.5t27 87.5v262h120v-480h-114v77h-2q-41 -89 -147 -89q-33 0 -55 7v-223h-120v708z" />
    <glyph glyph-name="paragraph" unicode="&#xb6;" horiz-adv-x="600" 
d="M246 -126v464q-96 0 -155.5 51t-59.5 131q0 97 61.5 142.5t171.5 45.5h269v-834h-90v762h-107v-762h-90z" />
    <glyph glyph-name="periodcentered" unicode="&#xb7;" horiz-adv-x="296" 
d="M68 291q0 32 23.5 55t56.5 23t56.5 -22t23.5 -54t-23.5 -55t-56.5 -23q-32 0 -56 22t-24 54z" />
    <glyph glyph-name="cedilla" unicode="&#xb8;" 
d="M219 0l-42 -60q27 0 44.5 -2.5t37 -10t29.5 -25t10 -45.5q0 -50 -42.5 -73.5t-96.5 -23.5q-56 0 -106 28l22 46q38 -20 82 -20q21 0 39 10t18 32q0 18 -16 27t-35 9q-16 0 -37 -7l-27 25l62 90h58z" />
    <glyph glyph-name="onesuperior" unicode="&#xb9;" horiz-adv-x="385" 
d="M179 289v317l-84 -75l-55 66l150 117h91v-425h-102z" />
    <glyph glyph-name="ordmasculine" unicode="&#xba;" horiz-adv-x="397" 
d="M197 425q-71 0 -119 41.5t-47 105.5q0 65 47.5 106.5t118.5 41.5q72 0 120.5 -41.5t48.5 -106.5q0 -64 -48.5 -105.5t-120.5 -41.5zM197 497q39 0 62 23.5t23 51.5q0 29 -23 52.5t-62 23.5t-61.5 -23.5t-22.5 -52.5t22.5 -52t61.5 -23z" />
    <glyph glyph-name="guillemotright" unicode="&#xbb;" horiz-adv-x="519" 
d="M262 73l115 173l-116 175l76 51l152 -226l-152 -224zM39 73l115 173l-116 175l76 51l152 -226l-152 -224z" />
    <glyph glyph-name="onequarter" unicode="&#xbc;" horiz-adv-x="889" 
d="M705 0v85h-198v78l188 262h112v-256h53v-84h-53v-85h-102zM705 169v134l-1 2l-95 -136h96zM168 289v317l-84 -75l-55 66l150 117h91v-425h-102zM184 6l416 734l83 -38l-416 -734z" />
    <glyph glyph-name="onehalf" unicode="&#xbd;" horiz-adv-x="889" 
d="M171 289v317l-84 -75l-55 66l150 117h91v-425h-102zM535 0v95l179 152q41 36 41 55q0 39 -56 39q-26 0 -43 -15.5t-19 -38.5l-96 6q4 69 48 103.5t115 34.5q69 0 111 -33t42 -95q0 -65 -58 -109l-140 -108v-2h198v-84h-322zM186 6l416 734l83 -38l-416 -734z" />
    <glyph glyph-name="threequarters" unicode="&#xbe;" horiz-adv-x="889" 
d="M715 157v178h-2l-118 -176v-2h120zM712 0v85h-198v78l188 262h112v-256h52v-84h-52v-85h-102zM142 468v84h32q70 0 70 45q0 33 -53 33q-50 0 -61 -44l-103 20q27 114 164 114q65 0 110 -29.5t45 -84.5q0 -36 -20.5 -61t-58.5 -32v-2q40 -5 63.5 -33.5t23.5 -66.5
q0 -62 -47 -95t-119 -33q-139 0 -165 118l103 22q10 -50 62 -50q64 0 64 48q0 22 -14 32.5t-29.5 12.5t-43.5 2h-23zM211 6l416 734l83 -38l-416 -734z" />
    <glyph glyph-name="questiondown" unicode="&#xbf;" horiz-adv-x="519" 
d="M189 277h120v-55q0 -42 -10 -62.5t-44 -54.5l-77 -78q-25 -25 -25 -65q0 -39 25.5 -63.5t64.5 -24.5q41 0 68.5 28t31.5 70l128 -10q-11 -94 -74 -148t-159 -54q-92 0 -151.5 51.5t-59.5 143.5q0 38 15 71t32.5 52.5t50.5 50.5q7 6 11 10q23 22 31 31t15 26.5t7 42.5v38z
M329 416q0 -32 -23.5 -55t-56.5 -23t-56.5 22t-23.5 54t23.5 55t56.5 23q32 0 56 -22t24 -54z" />
    <glyph glyph-name="Agrave" unicode="&#xc0;" horiz-adv-x="722" 
d="M0 0l308 708h109l305 -708h-144l-66 162h-307l-64 -162h-141zM248 270h220l-109 288zM309 900l99 -144h-94l-141 144h136z" />
    <glyph glyph-name="Aacute" unicode="&#xc1;" horiz-adv-x="722" 
d="M0 0l308 708h109l305 -708h-144l-66 162h-307l-64 -162h-141zM248 270h220l-109 288zM314 756l99 144h136l-141 -144h-94z" />
    <glyph glyph-name="Acircumflex" unicode="&#xc2;" horiz-adv-x="722" 
d="M0 0l308 708h109l305 -708h-144l-66 162h-307l-64 -162h-141zM248 270h220l-109 288zM543 756h-114l-69 90l-69 -90h-112l115 144h135z" />
    <glyph glyph-name="Atilde" unicode="&#xc3;" horiz-adv-x="722" 
d="M0 0l308 708h109l305 -708h-144l-66 162h-307l-64 -162h-141zM248 270h220l-109 288zM243 760h-66q22 127 112 127q30 0 80.5 -18.5t63.5 -18.5q33 0 46 42h66q-22 -127 -112 -127q-30 0 -80.5 19t-63.5 19q-32 0 -46 -43z" />
    <glyph glyph-name="Adieresis" unicode="&#xc4;" horiz-adv-x="722" 
d="M0 0l308 708h109l305 -708h-144l-66 162h-307l-64 -162h-141zM248 270h220l-109 288zM181 828q0 29 22 50.5t54 21.5q33 0 55.5 -20.5t22.5 -51.5t-22.5 -51.5t-55.5 -20.5q-32 0 -54 21.5t-22 50.5zM387 828q0 29 22 50.5t54 21.5q33 0 55.5 -20.5t22.5 -51.5
t-22.5 -51.5t-55.5 -20.5q-32 0 -54 21.5t-22 50.5z" />
    <glyph glyph-name="Aring" unicode="&#xc5;" horiz-adv-x="722" 
d="M0 0l308 708h109l305 -708h-144l-66 162h-307l-64 -162h-141zM248 270h220l-109 288zM466 837q0 -44 -30 -73t-75 -29q-44 0 -74.5 29t-30.5 72q0 44 30 73.5t75 29.5t75 -29t30 -73zM418 837q0 23 -17 38.5t-40 15.5t-40 -15.5t-17 -38.5t17 -38.5t40 -15.5t40 15.5
t17 38.5z" />
    <glyph glyph-name="AE" unicode="&#xc6;" horiz-adv-x="1000" 
d="M529 0v186h-268l-114 -186h-153l453 708h496v-114h-288v-174h270v-114h-270v-192h300v-114h-426zM327 294h202v300h-15z" />
    <glyph glyph-name="Ccedilla" unicode="&#xc7;" horiz-adv-x="685" 
d="M663 614l-98 -72q-66 70 -149 70q-108 0 -175.5 -72.5t-67.5 -180.5q0 -115 67.5 -189t175.5 -74q92 0 159 86l104 -74q-90 -124 -260 -126l-29 -42q27 0 44.5 -2.5t37 -10t29.5 -25t10 -45.5q0 -50 -42.5 -73.5t-96.5 -23.5q-56 0 -106 28l22 46q38 -20 82 -20
q21 0 39 10t18 32q0 18 -16 27t-35 9q-16 0 -37 -7l-27 25l51 75q-145 17 -233.5 116t-88.5 250q0 169 104.5 272t269.5 103q151 0 248 -112z" />
    <glyph glyph-name="Egrave" unicode="&#xc8;" horiz-adv-x="611" 
d="M79 0v708h469v-114h-343v-174h325v-114h-325v-192h361v-114h-487zM254 900l99 -144h-94l-141 144h136z" />
    <glyph glyph-name="Eacute" unicode="&#xc9;" horiz-adv-x="611" 
d="M79 0v708h469v-114h-343v-174h325v-114h-325v-192h361v-114h-487zM259 756l99 144h136l-141 -144h-94z" />
    <glyph glyph-name="Ecircumflex" unicode="&#xca;" horiz-adv-x="611" 
d="M79 0v708h469v-114h-343v-174h325v-114h-325v-192h361v-114h-487zM488 756h-114l-69 90l-69 -90h-112l115 144h135z" />
    <glyph glyph-name="Edieresis" unicode="&#xcb;" horiz-adv-x="611" 
d="M79 0v708h469v-114h-343v-174h325v-114h-325v-192h361v-114h-487zM126 828q0 29 22 50.5t54 21.5q33 0 55.5 -20.5t22.5 -51.5t-22.5 -51.5t-55.5 -20.5q-32 0 -54 21.5t-22 50.5zM332 828q0 29 22 50.5t54 21.5q33 0 55.5 -20.5t22.5 -51.5t-22.5 -51.5t-55.5 -20.5
q-32 0 -54 21.5t-22 50.5z" />
    <glyph glyph-name="Igrave" unicode="&#xcc;" horiz-adv-x="278" 
d="M76 0v708h126v-708h-126zM87 900l99 -144h-94l-141 144h136z" />
    <glyph glyph-name="Iacute" unicode="&#xcd;" horiz-adv-x="278" 
d="M76 0v708h126v-708h-126zM92 756l99 144h136l-141 -144h-94z" />
    <glyph glyph-name="Icircumflex" unicode="&#xce;" horiz-adv-x="278" 
d="M76 0v708h126v-708h-126zM321 756h-114l-69 90l-69 -90h-112l115 144h135z" />
    <glyph glyph-name="Idieresis" unicode="&#xcf;" horiz-adv-x="278" 
d="M76 0v708h126v-708h-126zM-41 828q0 29 22 50.5t54 21.5q33 0 55.5 -20.5t22.5 -51.5t-22.5 -51.5t-55.5 -20.5q-32 0 -54 21.5t-22 50.5zM165 828q0 29 22 50.5t54 21.5q33 0 55.5 -20.5t22.5 -51.5t-22.5 -51.5t-55.5 -20.5q-32 0 -54 21.5t-22 50.5z" />
    <glyph glyph-name="Eth" unicode="&#xd0;" horiz-adv-x="759" 
d="M79 0v324h-66v84h66v300h279q150 0 255 -92t105 -262q0 -87 -34.5 -157t-90 -111.5t-120 -63.5t-130.5 -22h-264zM205 114h94q128 0 207.5 59t79.5 181q0 123 -71.5 181.5t-194.5 58.5h-115v-186h216v-84h-216v-210z" />
    <glyph glyph-name="Ntilde" unicode="&#xd1;" horiz-adv-x="796" 
d="M79 0v708h167l343 -526h2v526h126v-708h-160l-350 543h-2v-543h-126zM280 760h-66q22 127 112 127q30 0 80.5 -18.5t63.5 -18.5q33 0 46 42h66q-22 -127 -112 -127q-30 0 -80.5 19t-63.5 19q-32 0 -46 -43z" />
    <glyph glyph-name="Ograve" unicode="&#xd2;" horiz-adv-x="833" 
d="M41 351q0 169 104.5 272t269.5 103q167 3 272 -99.5t105 -271.5q0 -165 -105 -267.5t-272 -105.5q-165 0 -269.5 102t-104.5 267zM173 359q0 -115 67.5 -189t175.5 -74q109 0 176.5 74t67.5 189q0 108 -68 180.5t-176 72.5t-175.5 -72.5t-67.5 -180.5zM365 900l99 -144
h-94l-141 144h136z" />
    <glyph glyph-name="Oacute" unicode="&#xd3;" horiz-adv-x="833" 
d="M41 351q0 169 104.5 272t269.5 103q167 3 272 -99.5t105 -271.5q0 -165 -105 -267.5t-272 -105.5q-165 0 -269.5 102t-104.5 267zM173 359q0 -115 67.5 -189t175.5 -74q109 0 176.5 74t67.5 189q0 108 -68 180.5t-176 72.5t-175.5 -72.5t-67.5 -180.5zM370 756l99 144
h136l-141 -144h-94z" />
    <glyph glyph-name="Ocircumflex" unicode="&#xd4;" horiz-adv-x="833" 
d="M41 351q0 169 104.5 272t269.5 103q167 3 272 -99.5t105 -271.5q0 -165 -105 -267.5t-272 -105.5q-165 0 -269.5 102t-104.5 267zM173 359q0 -115 67.5 -189t175.5 -74q109 0 176.5 74t67.5 189q0 108 -68 180.5t-176 72.5t-175.5 -72.5t-67.5 -180.5zM599 756h-114
l-69 90l-69 -90h-112l115 144h135z" />
    <glyph glyph-name="Otilde" unicode="&#xd5;" horiz-adv-x="833" 
d="M41 351q0 169 104.5 272t269.5 103q167 3 272 -99.5t105 -271.5q0 -165 -105 -267.5t-272 -105.5q-165 0 -269.5 102t-104.5 267zM173 359q0 -115 67.5 -189t175.5 -74q109 0 176.5 74t67.5 189q0 108 -68 180.5t-176 72.5t-175.5 -72.5t-67.5 -180.5zM299 760h-66
q22 127 112 127q30 0 80.5 -18.5t63.5 -18.5q33 0 46 42h66q-22 -127 -112 -127q-30 0 -80.5 19t-63.5 19q-32 0 -46 -43z" />
    <glyph glyph-name="Odieresis" unicode="&#xd6;" horiz-adv-x="833" 
d="M41 351q0 169 104.5 272t269.5 103q167 3 272 -99.5t105 -271.5q0 -165 -105 -267.5t-272 -105.5q-165 0 -269.5 102t-104.5 267zM173 359q0 -115 67.5 -189t175.5 -74q109 0 176.5 74t67.5 189q0 108 -68 180.5t-176 72.5t-175.5 -72.5t-67.5 -180.5zM237 828
q0 29 22 50.5t54 21.5q33 0 55.5 -20.5t22.5 -51.5t-22.5 -51.5t-55.5 -20.5q-32 0 -54 21.5t-22 50.5zM443 828q0 29 22 50.5t54 21.5q33 0 55.5 -20.5t22.5 -51.5t-22.5 -51.5t-55.5 -20.5q-32 0 -54 21.5t-22 50.5z" />
    <glyph glyph-name="multiply" unicode="&#xd7;" horiz-adv-x="666" 
d="M150 557l183 -183l182 182l70 -70l-181 -181l185 -186l-74 -74l-183 181l-181 -181l-74 73l185 182l-184 186z" />
    <glyph glyph-name="Oslash" unicode="&#xd8;" horiz-adv-x="833" 
d="M219 197l340 370q-62 45 -143 45q-108 0 -175.5 -72.5t-67.5 -180.5q0 -92 46 -162zM606 521l-342 -373q65 -52 152 -52q109 0 176.5 74t67.5 189q0 97 -54 162zM732 755l49 -43l-86 -94q97 -102 97 -263q0 -165 -105 -267.5t-272 -105.5q-138 0 -236 74l-85 -92l-50 43
l87 94q-90 101 -90 250q0 169 104.5 272t269.5 103q130 3 230 -65z" />
    <glyph glyph-name="Ugrave" unicode="&#xd9;" horiz-adv-x="722" 
d="M646 708v-448q0 -126 -80.5 -202t-204.5 -76t-204.5 76t-80.5 202v448h126v-444q0 -63 38.5 -112.5t120.5 -49.5t120.5 49.5t38.5 112.5v444h126zM309 900l99 -144h-94l-141 144h136z" />
    <glyph glyph-name="Uacute" unicode="&#xda;" horiz-adv-x="722" 
d="M646 708v-448q0 -126 -80.5 -202t-204.5 -76t-204.5 76t-80.5 202v448h126v-444q0 -63 38.5 -112.5t120.5 -49.5t120.5 49.5t38.5 112.5v444h126zM314 756l99 144h136l-141 -144h-94z" />
    <glyph glyph-name="Ucircumflex" unicode="&#xdb;" horiz-adv-x="722" 
d="M646 708v-448q0 -126 -80.5 -202t-204.5 -76t-204.5 76t-80.5 202v448h126v-444q0 -63 38.5 -112.5t120.5 -49.5t120.5 49.5t38.5 112.5v444h126zM543 756h-114l-69 90l-69 -90h-112l115 144h135z" />
    <glyph glyph-name="Udieresis" unicode="&#xdc;" horiz-adv-x="722" 
d="M646 708v-448q0 -126 -80.5 -202t-204.5 -76t-204.5 76t-80.5 202v448h126v-444q0 -63 38.5 -112.5t120.5 -49.5t120.5 49.5t38.5 112.5v444h126zM181 828q0 29 22 50.5t54 21.5q33 0 55.5 -20.5t22.5 -51.5t-22.5 -51.5t-55.5 -20.5q-32 0 -54 21.5t-22 50.5zM387 828
q0 29 22 50.5t54 21.5q33 0 55.5 -20.5t22.5 -51.5t-22.5 -51.5t-55.5 -20.5q-32 0 -54 21.5t-22 50.5z" />
    <glyph glyph-name="Yacute" unicode="&#xdd;" horiz-adv-x="630" 
d="M252 0v303l-266 405h158l174 -282l176 282h150l-266 -405v-303h-126zM268 756l99 144h136l-141 -144h-94z" />
    <glyph glyph-name="Thorn" unicode="&#xde;" horiz-adv-x="611" 
d="M79 0v708h126v-137h112q115 0 188 -48t73 -157q0 -52 -15.5 -90t-40.5 -61t-63 -36.5t-76.5 -18t-87.5 -4.5h-90v-156h-126zM205 264h76q27 0 45.5 1t43 6.5t39.5 15.5t26 29.5t11 47.5q0 99 -151 99h-90v-199z" />
    <glyph glyph-name="germandbls" unicode="&#xdf;" horiz-adv-x="611" 
d="M56 0v511q0 134 59 195.5t181 61.5q92 0 154.5 -48.5t62.5 -136.5q0 -114 -106 -158v-2q77 -10 118.5 -66.5t41.5 -138.5q0 -102 -66 -166t-169 -64q-46 0 -84 11v101q23 -10 55 -10q64 0 104 37.5t40 100.5q0 69 -41.5 106t-110.5 37h-14v102h8q45 0 74.5 25.5
t29.5 68.5q0 41 -29.5 67t-71.5 26q-58 0 -87 -33t-29 -88v-539h-120z" />
    <glyph glyph-name="agrave" unicode="&#xe0;" horiz-adv-x="537" 
d="M368 0v66h-3q-49 -78 -154 -78q-72 0 -123.5 38t-51.5 106q0 38 13.5 66.5t39 46t53 29t65.5 17t66.5 7t64.5 1.5h30v13q0 43 -30 66.5t-80 23.5q-75 0 -128 -50l-63 63q76 77 204 77q42 0 75.5 -9t55 -21.5t36.5 -33.5t22 -38t11 -42t4.5 -38t0.5 -34v-276h-108z
M361 188v27h-25q-180 0 -180 -74q0 -31 25.5 -47t58.5 -16q60 0 90.5 29t30.5 81zM217 708l99 -144h-94l-141 144h136z" />
    <glyph glyph-name="aacute" unicode="&#xe1;" horiz-adv-x="537" 
d="M368 0v66h-3q-49 -78 -154 -78q-72 0 -123.5 38t-51.5 106q0 38 13.5 66.5t39 46t53 29t65.5 17t66.5 7t64.5 1.5h30v13q0 43 -30 66.5t-80 23.5q-75 0 -128 -50l-63 63q76 77 204 77q42 0 75.5 -9t55 -21.5t36.5 -33.5t22 -38t11 -42t4.5 -38t0.5 -34v-276h-108z
M361 188v27h-25q-180 0 -180 -74q0 -31 25.5 -47t58.5 -16q60 0 90.5 29t30.5 81zM222 564l99 144h136l-141 -144h-94z" />
    <glyph glyph-name="acircumflex" unicode="&#xe2;" horiz-adv-x="537" 
d="M368 0v66h-3q-49 -78 -154 -78q-72 0 -123.5 38t-51.5 106q0 38 13.5 66.5t39 46t53 29t65.5 17t66.5 7t64.5 1.5h30v13q0 43 -30 66.5t-80 23.5q-75 0 -128 -50l-63 63q76 77 204 77q42 0 75.5 -9t55 -21.5t36.5 -33.5t22 -38t11 -42t4.5 -38t0.5 -34v-276h-108z
M361 188v27h-25q-180 0 -180 -74q0 -31 25.5 -47t58.5 -16q60 0 90.5 29t30.5 81zM451 564h-114l-69 90l-69 -90h-112l115 144h135z" />
    <glyph glyph-name="atilde" unicode="&#xe3;" horiz-adv-x="537" 
d="M368 0v66h-3q-49 -78 -154 -78q-72 0 -123.5 38t-51.5 106q0 38 13.5 66.5t39 46t53 29t65.5 17t66.5 7t64.5 1.5h30v13q0 43 -30 66.5t-80 23.5q-75 0 -128 -50l-63 63q76 77 204 77q42 0 75.5 -9t55 -21.5t36.5 -33.5t22 -38t11 -42t4.5 -38t0.5 -34v-276h-108z
M361 188v27h-25q-180 0 -180 -74q0 -31 25.5 -47t58.5 -16q60 0 90.5 29t30.5 81zM151 568h-66q22 127 112 127q30 0 80.5 -18.5t63.5 -18.5q33 0 46 42h66q-22 -127 -112 -127q-30 0 -80.5 19t-63.5 19q-32 0 -46 -43z" />
    <glyph glyph-name="adieresis" unicode="&#xe4;" horiz-adv-x="537" 
d="M368 0v66h-3q-49 -78 -154 -78q-72 0 -123.5 38t-51.5 106q0 38 13.5 66.5t39 46t53 29t65.5 17t66.5 7t64.5 1.5h30v13q0 43 -30 66.5t-80 23.5q-75 0 -128 -50l-63 63q76 77 204 77q42 0 75.5 -9t55 -21.5t36.5 -33.5t22 -38t11 -42t4.5 -38t0.5 -34v-276h-108z
M361 188v27h-25q-180 0 -180 -74q0 -31 25.5 -47t58.5 -16q60 0 90.5 29t30.5 81zM89 636q0 29 22 50.5t54 21.5q33 0 55.5 -20.5t22.5 -51.5t-22.5 -51.5t-55.5 -20.5q-32 0 -54 21.5t-22 50.5zM295 636q0 29 22 50.5t54 21.5q33 0 55.5 -20.5t22.5 -51.5t-22.5 -51.5
t-55.5 -20.5q-32 0 -54 21.5t-22 50.5z" />
    <glyph glyph-name="aring" unicode="&#xe5;" horiz-adv-x="537" 
d="M368 0v66h-3q-49 -78 -154 -78q-72 0 -123.5 38t-51.5 106q0 38 13.5 66.5t39 46t53 29t65.5 17t66.5 7t64.5 1.5h30v13q0 43 -30 66.5t-80 23.5q-75 0 -128 -50l-63 63q76 77 204 77q42 0 75.5 -9t55 -21.5t36.5 -33.5t22 -38t11 -42t4.5 -38t0.5 -34v-276h-108z
M361 188v27h-25q-180 0 -180 -74q0 -31 25.5 -47t58.5 -16q60 0 90.5 29t30.5 81zM374 655q0 -44 -30 -73t-75 -29q-44 0 -74.5 29t-30.5 72q0 44 30 73.5t75 29.5t75 -29t30 -73zM326 655q0 23 -17 38.5t-40 15.5t-40 -15.5t-17 -38.5t17 -38.5t40 -15.5t40 15.5t17 38.5z
" />
    <glyph glyph-name="ae" unicode="&#xe6;" horiz-adv-x="852" 
d="M816 237v-33h-350q-2 -55 36 -90.5t81 -35.5q75 0 128 65l83 -59q-75 -96 -211 -96q-58 0 -105 24t-74 62q-55 -85 -193 -85q-71 0 -123 37t-52 107q0 83 58.5 119t173.5 36h98q0 54 -28 84.5t-80 30.5q-75 0 -128 -50l-63 63q76 77 204 77q44 2 87.5 -16.5t71.5 -54.5
q65 71 155 70q112 0 171.5 -71.5t59.5 -183.5zM239 79q58 0 92.5 34t34.5 79v12h-60q-150 0 -150 -63q0 -31 26.5 -46.5t56.5 -15.5zM468 288h232q-3 52 -33.5 83t-82.5 31q-49 0 -81 -32t-35 -82z" />
    <glyph glyph-name="ccedilla" unicode="&#xe7;" horiz-adv-x="482" 
d="M479 419l-83 -83q-46 48 -91 48q-64 0 -102.5 -42.5t-38.5 -101.5t38.5 -101.5t102.5 -42.5q59 0 93 45l80 -86q-33 -33 -83 -50t-88 -17l-34 -48q27 0 44.5 -2.5t37 -10t29.5 -25t10 -45.5q0 -50 -42.5 -73.5t-96.5 -23.5q-56 0 -106 28l22 46q38 -20 82 -20q21 0 39 10
t18 32q0 18 -16 27t-35 9q-16 0 -37 -7l-27 25l57 83q-91 16 -149.5 83t-58.5 164q0 111 75 181.5t186 70.5q108 0 174 -73z" />
    <glyph glyph-name="egrave" unicode="&#xe8;" horiz-adv-x="574" 
d="M530 198h-366q6 -52 42 -83t87 -31q76 0 129 65l86 -65q-78 -96 -203 -96q-111 0 -186 70.5t-75 181.5t75 181.5t186 70.5q102 0 163.5 -69t61.5 -192v-33zM164 288h246q-1 53 -33.5 83.5t-88.5 30.5q-52 0 -84.5 -30.5t-39.5 -83.5zM235 708l99 -144h-94l-141 144h136z
" />
    <glyph glyph-name="eacute" unicode="&#xe9;" horiz-adv-x="574" 
d="M530 198h-366q6 -52 42 -83t87 -31q76 0 129 65l86 -65q-78 -96 -203 -96q-111 0 -186 70.5t-75 181.5t75 181.5t186 70.5q102 0 163.5 -69t61.5 -192v-33zM164 288h246q-1 53 -33.5 83.5t-88.5 30.5q-52 0 -84.5 -30.5t-39.5 -83.5zM240 564l99 144h136l-141 -144h-94z
" />
    <glyph glyph-name="ecircumflex" unicode="&#xea;" horiz-adv-x="574" 
d="M530 198h-366q6 -52 42 -83t87 -31q76 0 129 65l86 -65q-78 -96 -203 -96q-111 0 -186 70.5t-75 181.5t75 181.5t186 70.5q102 0 163.5 -69t61.5 -192v-33zM164 288h246q-1 53 -33.5 83.5t-88.5 30.5q-52 0 -84.5 -30.5t-39.5 -83.5zM469 564h-114l-69 90l-69 -90h-112
l115 144h135z" />
    <glyph glyph-name="edieresis" unicode="&#xeb;" horiz-adv-x="574" 
d="M530 198h-366q6 -52 42 -83t87 -31q76 0 129 65l86 -65q-78 -96 -203 -96q-111 0 -186 70.5t-75 181.5t75 181.5t186 70.5q102 0 163.5 -69t61.5 -192v-33zM164 288h246q-1 53 -33.5 83.5t-88.5 30.5q-52 0 -84.5 -30.5t-39.5 -83.5zM107 636q0 29 22 50.5t54 21.5
q33 0 55.5 -20.5t22.5 -51.5t-22.5 -51.5t-55.5 -20.5q-32 0 -54 21.5t-22 50.5zM313 636q0 29 22 50.5t54 21.5q33 0 55.5 -20.5t22.5 -51.5t-22.5 -51.5t-55.5 -20.5q-32 0 -54 21.5t-22 50.5z" />
    <glyph glyph-name="igrave" unicode="&#xec;" 
d="M70 0v480h120v-480h-120zM90 708l99 -144h-94l-141 144h136z" />
    <glyph glyph-name="iacute" unicode="&#xed;" 
d="M70 0v480h120v-480h-120zM71 564l99 144h136l-141 -144h-94z" />
    <glyph glyph-name="icircumflex" unicode="&#xee;" 
d="M70 0v480h120v-480h-120zM312 564h-114l-69 90l-69 -90h-112l115 144h135z" />
    <glyph glyph-name="idieresis" unicode="&#xef;" 
d="M70 0v480h120v-480h-120zM-50 636q0 29 22 50.5t54 21.5q33 0 55.5 -20.5t22.5 -51.5t-22.5 -51.5t-55.5 -20.5q-32 0 -54 21.5t-22 50.5zM156 636q0 29 22 50.5t54 21.5q33 0 55.5 -20.5t22.5 -51.5t-22.5 -51.5t-55.5 -20.5q-32 0 -54 21.5t-22 50.5z" />
    <glyph glyph-name="eth" unicode="&#xf0;" horiz-adv-x="610" 
d="M442 768l64 -56l-117 -54q177 -194 177 -381q0 -130 -68 -209.5t-193 -79.5q-111 0 -186 70.5t-75 181.5t73.5 181.5t177.5 70.5q75 0 114 -38l2 2q-39 63 -126 152l-3 3l-106 -49l-60 57l107 50q-8 8 -22 20t-31.5 26t-23.5 19l100 58q28 -22 85 -75zM305 96
q64 0 102.5 42.5t38.5 101.5t-38.5 101.5t-102.5 42.5t-102.5 -42.5t-38.5 -101.5t38.5 -101.5t102.5 -42.5z" />
    <glyph glyph-name="ntilde" unicode="&#xf1;" horiz-adv-x="574" 
d="M68 0v480h114v-77h2q41 89 147 89q90 0 132.5 -53.5t42.5 -135.5v-303h-120v243q0 26 -2.5 45.5t-10 44t-26.5 38t-49 13.5q-56 0 -83 -34.5t-27 -87.5v-262h-120zM169 568h-66q22 127 112 127q30 0 80.5 -18.5t63.5 -18.5q33 0 46 42h66q-22 -127 -112 -127
q-30 0 -80.5 19t-63.5 19q-32 0 -46 -43z" />
    <glyph glyph-name="ograve" unicode="&#xf2;" horiz-adv-x="610" 
d="M44 240q0 111 75 181.5t186 70.5t186 -70.5t75 -181.5t-75 -181.5t-186 -70.5t-186 70.5t-75 181.5zM164 240q0 -59 38.5 -101.5t102.5 -42.5t102.5 42.5t38.5 101.5t-38.5 101.5t-102.5 42.5t-102.5 -42.5t-38.5 -101.5zM253 708l99 -144h-94l-141 144h136z" />
    <glyph glyph-name="oacute" unicode="&#xf3;" horiz-adv-x="610" 
d="M44 240q0 111 75 181.5t186 70.5t186 -70.5t75 -181.5t-75 -181.5t-186 -70.5t-186 70.5t-75 181.5zM164 240q0 -59 38.5 -101.5t102.5 -42.5t102.5 42.5t38.5 101.5t-38.5 101.5t-102.5 42.5t-102.5 -42.5t-38.5 -101.5zM258 564l99 144h136l-141 -144h-94z" />
    <glyph glyph-name="ocircumflex" unicode="&#xf4;" horiz-adv-x="610" 
d="M44 240q0 111 75 181.5t186 70.5t186 -70.5t75 -181.5t-75 -181.5t-186 -70.5t-186 70.5t-75 181.5zM164 240q0 -59 38.5 -101.5t102.5 -42.5t102.5 42.5t38.5 101.5t-38.5 101.5t-102.5 42.5t-102.5 -42.5t-38.5 -101.5zM487 564h-114l-69 90l-69 -90h-112l115 144h135z
" />
    <glyph glyph-name="otilde" unicode="&#xf5;" horiz-adv-x="610" 
d="M44 240q0 111 75 181.5t186 70.5t186 -70.5t75 -181.5t-75 -181.5t-186 -70.5t-186 70.5t-75 181.5zM164 240q0 -59 38.5 -101.5t102.5 -42.5t102.5 42.5t38.5 101.5t-38.5 101.5t-102.5 42.5t-102.5 -42.5t-38.5 -101.5zM187 568h-66q22 127 112 127q30 0 80.5 -18.5
t63.5 -18.5q33 0 46 42h66q-22 -127 -112 -127q-30 0 -80.5 19t-63.5 19q-32 0 -46 -43z" />
    <glyph glyph-name="odieresis" unicode="&#xf6;" horiz-adv-x="610" 
d="M44 240q0 111 75 181.5t186 70.5t186 -70.5t75 -181.5t-75 -181.5t-186 -70.5t-186 70.5t-75 181.5zM164 240q0 -59 38.5 -101.5t102.5 -42.5t102.5 42.5t38.5 101.5t-38.5 101.5t-102.5 42.5t-102.5 -42.5t-38.5 -101.5zM125 636q0 29 22 50.5t54 21.5q33 0 55.5 -20.5
t22.5 -51.5t-22.5 -51.5t-55.5 -20.5q-32 0 -54 21.5t-22 50.5zM331 636q0 29 22 50.5t54 21.5q33 0 55.5 -20.5t22.5 -51.5t-22.5 -51.5t-55.5 -20.5q-32 0 -54 21.5t-22 50.5z" />
    <glyph glyph-name="divide" unicode="&#xf7;" horiz-adv-x="666" 
d="M62 354h542v-102h-542v102zM258 483q0 31 22 53t53 22t53 -22t22 -53t-22 -53t-53 -22t-53 22t-22 53zM258 123q0 31 22 53t53 22t53 -22t22 -53t-22 -53t-53 -22t-53 22t-22 53z" />
    <glyph glyph-name="oslash" unicode="&#xf8;" horiz-adv-x="610" 
d="M187 160l197 200q-34 24 -79 24q-64 0 -102.5 -42.5t-38.5 -101.5q0 -45 23 -80zM425 318l-198 -199q32 -23 78 -23q64 0 102.5 42.5t38.5 101.5q0 44 -21 78zM537 514l42 -40l-70 -71q57 -68 57 -163q0 -111 -75 -181.5t-186 -70.5q-91 0 -159 49l-70 -71l-40 41l67 68
q-59 67 -59 165q0 111 75 181.5t186 70.5q92 0 161 -50z" />
    <glyph glyph-name="ugrave" unicode="&#xf9;" horiz-adv-x="574" 
d="M506 480v-480h-114v77h-2q-41 -89 -147 -89q-90 0 -132.5 53.5t-42.5 135.5v303h120v-243q0 -26 2.5 -45.5t10 -44t26.5 -38t49 -13.5q56 0 83 34.5t27 87.5v262h120zM235 708l99 -144h-94l-141 144h136z" />
    <glyph glyph-name="uacute" unicode="&#xfa;" horiz-adv-x="574" 
d="M506 480v-480h-114v77h-2q-41 -89 -147 -89q-90 0 -132.5 53.5t-42.5 135.5v303h120v-243q0 -26 2.5 -45.5t10 -44t26.5 -38t49 -13.5q56 0 83 34.5t27 87.5v262h120zM240 564l99 144h136l-141 -144h-94z" />
    <glyph glyph-name="ucircumflex" unicode="&#xfb;" horiz-adv-x="574" 
d="M506 480v-480h-114v77h-2q-41 -89 -147 -89q-90 0 -132.5 53.5t-42.5 135.5v303h120v-243q0 -26 2.5 -45.5t10 -44t26.5 -38t49 -13.5q56 0 83 34.5t27 87.5v262h120zM469 564h-114l-69 90l-69 -90h-112l115 144h135z" />
    <glyph glyph-name="udieresis" unicode="&#xfc;" horiz-adv-x="574" 
d="M506 480v-480h-114v77h-2q-41 -89 -147 -89q-90 0 -132.5 53.5t-42.5 135.5v303h120v-243q0 -26 2.5 -45.5t10 -44t26.5 -38t49 -13.5q56 0 83 34.5t27 87.5v262h120zM107 636q0 29 22 50.5t54 21.5q33 0 55.5 -20.5t22.5 -51.5t-22.5 -51.5t-55.5 -20.5q-32 0 -54 21.5
t-22 50.5zM313 636q0 29 22 50.5t54 21.5q33 0 55.5 -20.5t22.5 -51.5t-22.5 -51.5t-55.5 -20.5q-32 0 -54 21.5t-22 50.5z" />
    <glyph glyph-name="yacute" unicode="&#xfd;" horiz-adv-x="519" 
d="M208 -4l-205 484h132l134 -333h2l120 333h125l-227 -583q-28 -72 -67.5 -104.5t-115.5 -32.5q-47 0 -92 12l15 108q33 -12 61 -12q42 0 60.5 15.5t34.5 55.5zM213 564l99 144h136l-141 -144h-94z" />
    <glyph glyph-name="thorn" unicode="&#xfe;" horiz-adv-x="630" 
d="M68 -228v984h120v-338h2q21 35 64 54.5t95 19.5q108 0 172.5 -71.5t64.5 -180.5q0 -108 -65 -180t-167 -72q-104 0 -163 73h-3v-289h-120zM466 240q0 59 -38.5 101.5t-102.5 42.5t-102.5 -42.5t-38.5 -101.5t38.5 -101.5t102.5 -42.5t102.5 42.5t38.5 101.5z" />
    <glyph glyph-name="ydieresis" unicode="&#xff;" horiz-adv-x="519" 
d="M208 -4l-205 484h132l134 -333h2l120 333h125l-227 -583q-28 -72 -67.5 -104.5t-115.5 -32.5q-47 0 -92 12l15 108q33 -12 61 -12q42 0 60.5 15.5t34.5 55.5zM80 636q0 29 22 50.5t54 21.5q33 0 55.5 -20.5t22.5 -51.5t-22.5 -51.5t-55.5 -20.5q-32 0 -54 21.5t-22 50.5z
M286 636q0 29 22 50.5t54 21.5q33 0 55.5 -20.5t22.5 -51.5t-22.5 -51.5t-55.5 -20.5q-32 0 -54 21.5t-22 50.5z" />
    <glyph glyph-name="dotlessi" unicode="&#x131;" 
d="M70 0v480h120v-480h-120z" />
    <glyph glyph-name="Lslash" unicode="&#x141;" horiz-adv-x="519" 
d="M79 0v187l-70 -62v110l70 62v411h126v-300l206 181v-109l-206 -182v-184h301v-114h-427z" />
    <glyph glyph-name="lslash" unicode="&#x142;" 
d="M70 0v273l-69 -69v109l69 69v374h120v-255l69 69v-107l-69 -68v-395h-120z" />
    <glyph glyph-name="OE" unicode="&#x152;" horiz-adv-x="1000" 
d="M645 594v-174h270v-114h-270v-192h305v-114h-497q-186 0 -294.5 100t-108.5 254q0 156 108 255t295 99h480v-114h-288zM519 114v480h-63q-31 0 -63.5 -6t-70 -23t-66.5 -42.5t-48.5 -69.5t-19.5 -99t19.5 -99t48.5 -69.5t66.5 -42.5t70 -23t63.5 -6h63z" />
    <glyph glyph-name="oe" unicode="&#x153;" horiz-adv-x="926" 
d="M890 204h-350q-2 -51 36.5 -85.5t80.5 -34.5q75 0 128 65l83 -59q-73 -102 -211 -102q-120 0 -178 77q-70 -77 -182 -77q-111 0 -186 70.5t-75 181.5t75 181.5t186 70.5q113 0 184 -78q63 78 178 78q112 0 171.5 -71.5t59.5 -183.5v-33zM536 288h234q-1 52 -31.5 83
t-79.5 31q-47 0 -84.5 -30.5t-38.5 -83.5zM156 240q0 -63 38.5 -106.5t102.5 -43.5q65 0 104 43.5t39 106.5t-39 106.5t-104 43.5q-64 0 -102.5 -43.5t-38.5 -106.5z" />
    <glyph glyph-name="Scaron" unicode="&#x160;" horiz-adv-x="574" 
d="M518 653l-92 -97q-40 56 -124 56q-48 0 -82 -23t-34 -68q0 -33 25 -55t62 -33t81 -27.5t81 -36t62 -61t25 -100.5q0 -109 -74 -167.5t-185 -58.5q-151 0 -232 96l95 92q49 -74 140 -74q48 0 86 25.5t38 71.5q0 31 -18.5 53t-48 34.5t-65.5 23.5t-72 25.5t-65.5 35.5
t-48 58.5t-18.5 88.5q0 103 77 158.5t184 55.5q126 0 203 -73zM106 900h114l69 -90l69 90h110l-115 -144h-133z" />
    <glyph glyph-name="scaron" unicode="&#x161;" horiz-adv-x="444" 
d="M404 419l-80 -72q-35 49 -94 49q-27 0 -48.5 -13t-21.5 -38q0 -23 26.5 -35.5t65 -20t76.5 -19.5t64.5 -44t26.5 -84q0 -79 -61.5 -116.5t-145.5 -37.5q-121 0 -187 74l80 75q54 -59 114 -59q30 0 55 14.5t25 40.5q0 27 -26.5 41t-64.5 21.5t-76.5 18.5t-65 41.5
t-26.5 81.5q0 75 56.5 115t136.5 40q117 0 171 -73zM41 708h114l69 -90l69 90h110l-115 -144h-133z" />
    <glyph glyph-name="Ydieresis" unicode="&#x178;" horiz-adv-x="630" 
d="M252 0v303l-266 405h158l174 -282l176 282h150l-266 -405v-303h-126zM135 828q0 29 22 50.5t54 21.5q33 0 55.5 -20.5t22.5 -51.5t-22.5 -51.5t-55.5 -20.5q-32 0 -54 21.5t-22 50.5zM341 828q0 29 22 50.5t54 21.5q33 0 55.5 -20.5t22.5 -51.5t-22.5 -51.5t-55.5 -20.5
q-32 0 -54 21.5t-22 50.5z" />
    <glyph glyph-name="Zcaron" unicode="&#x17d;" horiz-adv-x="611" 
d="M35 0v114l378 480h-372v114h529v-114l-381 -480h387v-114h-541zM125 900h114l69 -90l69 90h110l-115 -144h-133z" />
    <glyph glyph-name="zcaron" unicode="&#x17e;" horiz-adv-x="482" 
d="M34 0v111l257 271v2h-245v96h390v-109l-260 -275h272v-96h-414zM60 708h114l69 -90l69 90h110l-115 -144h-133z" />
    <glyph glyph-name="florin" unicode="&#x192;" horiz-adv-x="592" 
d="M480 426v-90h-138l-57 -288q-19 -96 -64 -141.5t-123 -45.5q-55 0 -102 24l45 92q20 -14 47 -14q36 0 53 26t27 78l53 269h-113v90h131l22 111q17 85 58 134t122 49q60 0 117 -31l-46 -93q-27 16 -55 16q-21 0 -35.5 -8.5t-23.5 -26t-13 -30.5t-9 -37l-18 -84h122z" />
    <glyph glyph-name="circumflex" unicode="&#x2c6;" 
d="M312 564h-114l-69 90l-69 -90h-112l115 144h135z" />
    <glyph glyph-name="caron" unicode="&#x2c7;" 
d="M-51 708h114l69 -90l69 90h110l-115 -144h-133z" />
    <glyph glyph-name="uni02C9" unicode="&#x2c9;" 
d="M290 673v-78h-320v78h320z" />
    <glyph glyph-name="breve" unicode="&#x2d8;" 
d="M-40 708h67q12 -66 103 -66q46 0 70 13t34 53h66q-7 -72 -52.5 -108t-118.5 -36q-74 0 -119.5 36t-49.5 108z" />
    <glyph glyph-name="dotaccent" unicode="&#x2d9;" 
d="M53 636q0 29 22 50.5t54 21.5q33 0 55.5 -20.5t22.5 -51.5t-22.5 -51.5t-55.5 -20.5q-32 0 -54 21.5t-22 50.5z" />
    <glyph glyph-name="ring" unicode="&#x2da;" 
d="M235 655q0 -44 -30 -73t-75 -29q-44 0 -74.5 29t-30.5 72q0 44 30 73.5t75 29.5t75 -29t30 -73zM187 655q0 23 -17 38.5t-40 15.5t-40 -15.5t-17 -38.5t17 -38.5t40 -15.5t40 15.5t17 38.5z" />
    <glyph glyph-name="ogonek" unicode="&#x2db;" 
d="M177 -147l25 -49q-48 -38 -100 -38q-42 0 -72.5 24t-30.5 65q0 39 30.5 80t69.5 71h61q-30 -26 -56.5 -62.5t-26.5 -65.5q0 -19 13.5 -32.5t32.5 -13.5q29 0 54 21z" />
    <glyph glyph-name="tilde" unicode="&#x2dc;" 
d="M12 568h-66q22 127 112 127q30 0 80.5 -18.5t63.5 -18.5q33 0 46 42h66q-22 -127 -112 -127q-30 0 -80.5 19t-63.5 19q-32 0 -46 -43z" />
    <glyph glyph-name="hungarumlaut" unicode="&#x2dd;" 
d="M-20 564l99 144h136l-141 -144h-94zM185 564l99 144h136l-141 -144h-94z" />
    <glyph glyph-name="uni03A9" unicode="&#x3a9;" horiz-adv-x="759" 
d="M195 89v3q-59 50 -97.5 125t-38.5 169q0 140 91.5 235t231.5 95q142 0 229 -98t87 -227q0 -96 -39.5 -173.5t-98.5 -125.5v-3h152v-89h-271v66q62 39 102.5 115t40.5 188q0 103 -54.5 179.5t-148.5 76.5q-92 0 -150 -74t-58 -186q0 -105 41.5 -184.5t102.5 -114.5v-66
h-272v89h150z" />
    <glyph glyph-name="uni03BC" unicode="&#x3bc;" horiz-adv-x="574" 
d="M68 480h120v-243q0 -26 2.5 -45.5t10 -44t26.5 -38t49 -13.5q56 0 83 34.5t27 87.5v262h120v-480h-114v77h-2q-41 -89 -147 -89q-33 0 -55 7v-223h-120v708z" />
    <glyph glyph-name="pi" unicode="&#x3c0;" horiz-adv-x="623" 
d="M597 434h-79v-281q0 -101 14 -153h-109q-18 28 -18 146v288h-164q-4 -99 -24.5 -232t-46.5 -202h-110q27 81 47.5 211t22.5 223q-78 0 -110 -11l-14 73q44 32 164 32h436z" />
    <glyph glyph-name="uni2010" unicode="&#x2010;" horiz-adv-x="315" 
d="M281 297v-102h-247v102h247z" />
    <glyph glyph-name="endash" unicode="&#x2013;" horiz-adv-x="500" 
d="M500 294v-96h-500v96h500z" />
    <glyph glyph-name="emdash" unicode="&#x2014;" horiz-adv-x="1000" 
d="M1000 294v-96h-1000v96h1000z" />
    <glyph glyph-name="quoteleft" unicode="&#x2018;" horiz-adv-x="296" 
d="M244 708l-70 -264h-122l85 264h107z" />
    <glyph glyph-name="quoteright" unicode="&#x2019;" horiz-adv-x="296" 
d="M52 444l70 264h122l-85 -264h-107z" />
    <glyph glyph-name="quotesinglbase" unicode="&#x201a;" horiz-adv-x="296" 
d="M52 -126l70 264h122l-85 -264h-107z" />
    <glyph glyph-name="quotedblleft" unicode="&#x201c;" horiz-adv-x="519" 
d="M250 708l-70 -264h-122l85 264h107zM461 708l-70 -264h-122l85 264h107z" />
    <glyph glyph-name="quotedblright" unicode="&#x201d;" horiz-adv-x="519" 
d="M269 444l70 264h122l-85 -264h-107zM58 444l70 264h122l-85 -264h-107z" />
    <glyph glyph-name="quotedblbase" unicode="&#x201e;" horiz-adv-x="519" 
d="M268 -126l70 264h122l-85 -264h-107zM59 -126l70 264h122l-85 -264h-107z" />
    <glyph glyph-name="dagger" unicode="&#x2020;" horiz-adv-x="593" 
d="M353 708v-203h199v-96h-199v-535h-114v535h-198v96h198v203h114z" />
    <glyph glyph-name="daggerdbl" unicode="&#x2021;" horiz-adv-x="593" 
d="M353 708v-185h193v-96h-193v-271h193v-96h-193v-186h-114v186h-192v96h192v271h-192v96h192v185h114z" />
    <glyph glyph-name="bullet" unicode="&#x2022;" horiz-adv-x="500" 
d="M73 354q0 74 51.5 125.5t125.5 51.5t125.5 -51.5t51.5 -125.5t-51.5 -125.5t-125.5 -51.5t-125.5 51.5t-51.5 125.5z" />
    <glyph glyph-name="ellipsis" unicode="&#x2026;" horiz-adv-x="1000" 
d="M87 70q0 32 23.5 55t56.5 23t56.5 -22t23.5 -54t-23.5 -55t-56.5 -23q-32 0 -56 22t-24 54zM420 70q0 32 23.5 55t56.5 23t56.5 -22t23.5 -54t-23.5 -55t-56.5 -23q-32 0 -56 22t-24 54zM753 70q0 32 23.5 55t56.5 23t56.5 -22t23.5 -54t-23.5 -55t-56.5 -23
q-32 0 -56 22t-24 54z" />
    <glyph glyph-name="perthousand" unicode="&#x2030;" horiz-adv-x="1167" 
d="M411 165q0 73 51.5 124.5t124.5 51.5t125 -51.5t52 -124.5t-52 -125t-125 -52t-124.5 52t-51.5 125zM501 165q0 -38 24.5 -62.5t61.5 -24.5t62 25t25 62t-24.5 61.5t-62.5 24.5q-37 0 -61.5 -24.5t-24.5 -61.5zM807 165q0 73 51.5 124.5t124.5 51.5t125 -51.5t52 -124.5
t-52 -125t-125 -52t-124.5 52t-51.5 125zM897 165q0 -38 24.5 -62.5t61.5 -24.5t62 25t25 62t-24.5 61.5t-62.5 24.5q-37 0 -61.5 -24.5t-24.5 -61.5zM7 544q0 73 51.5 124.5t124.5 51.5t125 -51.5t52 -124.5t-52 -125t-125 -52t-124.5 52t-51.5 125zM97 544
q0 -38 24.5 -62.5t61.5 -24.5t62 24.5t25 62.5q0 37 -24.5 61.5t-62.5 24.5q-37 0 -61.5 -24t-24.5 -62zM134 6l416 734l83 -38l-416 -734z" />
    <glyph glyph-name="guilsinglleft" unicode="&#x2039;" horiz-adv-x="296" 
d="M257 421l-115 -173l116 -175l-76 -51l-152 226l152 224z" />
    <glyph glyph-name="guilsinglright" unicode="&#x203a;" horiz-adv-x="296" 
d="M39 73l115 173l-116 175l76 51l152 -226l-152 -224z" />
    <glyph glyph-name="fraction" unicode="&#x2044;" horiz-adv-x="167" 
d="M-166 6l416 734l83 -38l-416 -734z" />
    <glyph glyph-name="Euro" unicode="&#x20ac;" horiz-adv-x="592" 
d="M560 74q-26 -37 -80 -61.5t-122 -24.5q-218 0 -264 230h-79l28 90h40q-1 13 -1 41q0 19 2 51h-66l31 93h52q31 109 108 168t186 59q92 0 146 -33l-37 -103q-44 29 -111 29q-117 0 -160 -120h248l-29 -93h-238q-3 -27 -3 -57q0 -24 1 -35h216l-29 -90h-174
q33 -124 139 -124q75 0 121 55z" />
    <glyph glyph-name="afii61289" unicode="&#x2113;" horiz-adv-x="532" 
d="M462 177l48 -46q-74 -139 -213 -139q-85 0 -130 48t-53 124v12q-53 -41 -57 -44l-30 60q7 6 38.5 31t46.5 39v260q0 130 50.5 192.5t127.5 62.5q71 0 107 -49t36 -126q0 -162 -213 -360v-36q1 -61 30 -93t73 -32q78 0 139 96zM220 530v-186q139 151 139 260q0 94 -65 94
q-30 0 -52 -40t-22 -128z" />
    <glyph glyph-name="trademark" unicode="&#x2122;" horiz-adv-x="1000" 
d="M162 296v322h-122v90h346v-90h-122v-322h-102zM480 296v412h142l98 -268l98 268h142v-412h-102v268h-2l-101 -268h-70l-101 268h-2v-268h-102z" />
    <glyph glyph-name="Omega" unicode="&#x2126;" horiz-adv-x="759" 
d="M195 89v3q-59 50 -97.5 125t-38.5 169q0 140 91.5 235t231.5 95q142 0 229 -98t87 -227q0 -96 -39.5 -173.5t-98.5 -125.5v-3h152v-89h-271v66q62 39 102.5 115t40.5 188q0 103 -54.5 179.5t-148.5 76.5q-92 0 -150 -74t-58 -186q0 -105 41.5 -184.5t102.5 -114.5v-66
h-272v89h150z" />
    <glyph glyph-name="estimated" unicode="&#x212e;" horiz-adv-x="883" 
d="M847 344h-658q-5 0 -5 -5v-199q0 -12 8 -23q105 -108 249 -108q77 0 145 32.5t117 88.5h59q-56 -65 -141 -103t-181 -38q-168 0 -287 107t-119 258t119 258.5t287 107.5q169 0 288 -107t119 -259v-10zM698 370v200q0 14 -10 24q-106 104 -247 104q-143 0 -248 -107
q-9 -11 -9 -25v-196q0 -7 5 -7h505q4 0 4 7z" />
    <glyph glyph-name="partialdiff" unicode="&#x2202;" horiz-adv-x="594" 
d="M107 655l-34 81q77 58 188 58q119 0 200.5 -101.5t81.5 -283.5q0 -185 -77 -301t-212 -116q-69 0 -119.5 38t-72.5 90.5t-22 109.5q0 116 65.5 188.5t160.5 72.5q61 0 104.5 -30t61.5 -61h1q1 10 1 38q0 113 -53 189.5t-134 76.5q-78 0 -140 -49zM265 83h1q61 0 103 66.5
t52 155.5q-11 34 -47.5 66t-85.5 32q-58 0 -97.5 -51.5t-39.5 -123.5q0 -62 31.5 -103.5t82.5 -41.5z" />
    <glyph glyph-name="uni2206" unicode="&#x2206;" horiz-adv-x="691" 
d="M29 0v67l252 655h133l247 -654v-68h-632zM145 89h394l-131 334q-6 20 -31 89t-32 94h-4q-5 -19 -27.5 -80.5t-30.5 -86.5z" />
    <glyph glyph-name="product" unicode="&#x220f;" horiz-adv-x="750" 
d="M724 606h-111v-703h-110v703h-256v-703h-110v703h-112v99h699v-99z" />
    <glyph glyph-name="summation" unicode="&#x2211;" horiz-adv-x="587" 
d="M566 -97h-543v70l266 330l-254 326v76h514v-94h-362v-4l229 -287l-251 -313v-3h401v-101z" />
    <glyph glyph-name="minus" unicode="&#x2212;" horiz-adv-x="666" 
d="M62 354h542v-102h-542v102z" />
    <glyph glyph-name="uni2215" unicode="&#x2215;" horiz-adv-x="167" 
d="M-166 6l416 734l83 -38l-416 -734z" />
    <glyph glyph-name="uni2219" unicode="&#x2219;" horiz-adv-x="296" 
d="M68 291q0 32 23.5 55t56.5 23t56.5 -22t23.5 -54t-23.5 -55t-56.5 -23q-32 0 -56 22t-24 54z" />
    <glyph glyph-name="radical" unicode="&#x221a;" horiz-adv-x="614" 
d="M621 842l-236 -988h-92l-162 452l-78 -30l-20 62l165 66l120 -348q2 -8 9.5 -37t10.5 -42l2 -1q1 4 6 35t9 49l187 782h79z" />
    <glyph glyph-name="infinity" unicode="&#x221e;" horiz-adv-x="806" 
d="M754 292v-1q0 -77 -48.5 -125t-114.5 -48q-47 0 -91 28t-96 92q-48 -58 -92 -89t-101 -31q-65 0 -112.5 48t-47.5 121q0 75 48 123.5t120 48.5q53 0 98 -31t91 -88q56 63 85 84q49 35 105 35q68 -1 112 -47t44 -120zM219 181h1q22 0 42 8t42.5 28.5t31.5 29.5t33 37
q-24 32 -34.5 44t-32 33t-42.5 29t-46 8q-45 0 -71.5 -32t-26.5 -80q0 -44 29 -74.5t74 -30.5zM591 398h-1q-18 0 -36 -6.5t-36 -22t-28 -24.5t-29 -30.5t-21 -24.5q52 -61 84 -85t70 -24q43 0 69 33t26 73q0 49 -27 80t-71 31z" />
    <glyph glyph-name="integral" unicode="&#x222b;" horiz-adv-x="394" 
d="M375 855l-13 -75q-20 10 -39 10q-33 0 -52 -26q-31 -37 -31 -173q0 -79 7.5 -241.5t7.5 -251.5q0 -136 -41 -202q-37 -66 -122 -66q-46 0 -76 17l15 78q24 -12 47 -12q30 0 47 21q32 42 32 164q0 90 -7.5 255.5t-7.5 248.5q0 161 60 222q41 44 112 44q37 0 61 -13z" />
    <glyph glyph-name="approxequal" unicode="&#x2248;" horiz-adv-x="584" 
d="M498 452l41 -38q-57 -102 -140 -102q-30 0 -54.5 9t-65.5 33q-59 34 -93 34q-32 0 -54 -19t-48 -56l-41 38q24 46 63.5 74t85.5 28q12 0 24.5 -2t20.5 -4.5t20.5 -8t16.5 -7.5t17 -9.5t14 -8.5q4 -2 15 -8.5t14.5 -8t12.5 -6t13.5 -6t11.5 -4t14 -3t14 -0.5q30 0 52 18.5
t46 56.5zM498 265l41 -38q-56 -102 -140 -102q-21 0 -41 6t-35 13t-44 24q-60 34 -93 34q-22 0 -42.5 -12.5t-31 -25t-28.5 -37.5l-41 37q24 46 64 74.5t85 28.5q15 0 28 -2t26.5 -7.5t20.5 -8.5t21.5 -11.5t16.5 -9.5q5 -3 18.5 -11t20 -11t17 -7.5t20 -6.5t19.5 -2
q30 0 51.5 18t46.5 57z" />
    <glyph glyph-name="notequal" unicode="&#x2260;" horiz-adv-x="584" 
d="M423 520l-44 -96h153v-65h-179l-65 -145h244v-65h-270l-55 -121l-52 23l45 98h-149v65h175l65 145h-240v65h266l53 118z" />
    <glyph glyph-name="lessequal" unicode="&#x2264;" horiz-adv-x="584" 
d="M529 99l-472 230v70l472 230v-76l-404 -187v-2l404 -189v-76zM532 -8h-480v67h480v-67z" />
    <glyph glyph-name="greaterequal" unicode="&#x2265;" horiz-adv-x="584" 
d="M58 629l472 -230v-70l-472 -230v76l404 188v2l-404 188v76zM530 -8h-477v67h477v-67z" />
    <glyph glyph-name="lozenge" unicode="&#x25ca;" horiz-adv-x="614" 
d="M560 352l-211 -402h-89l-206 402l210 402h89zM461 349l-133 261q-12 26 -20 55h-3q-9 -30 -20 -55l-133 -256l135 -263q13 -30 18 -53h4q7 30 18 52z" />
    <glyph glyph-name="fi" unicode="&#xfb01;" horiz-adv-x="593" 
d="M111 0v378h-99v102h99v68q0 110 37.5 165t141.5 55q41 0 76 -7l-8 -102q-30 7 -50 7q-46 0 -61.5 -26t-15.5 -73v-87h111v-102h-111v-378h-120zM420 0v480h120v-480h-120zM404 643q0 29 22 50.5t54 21.5q33 0 55.5 -20.5t22.5 -51.5t-22.5 -51.5t-55.5 -20.5
q-32 0 -54 21.5t-22 50.5z" />
    <glyph glyph-name="fl" unicode="&#xfb02;" horiz-adv-x="593" 
d="M111 0v378h-99v102h99v68q0 110 37.5 165t141.5 55q41 0 76 -7l-8 -102q-30 7 -50 7q-46 0 -61.5 -26t-15.5 -73v-87h111v-102h-111v-378h-120zM420 0v756h120v-756h-120z" />
    <glyph glyph-name="a.superior" horiz-adv-x="349" 
d="M243 431v39h-2q-27 -45 -103 -45q-22 0 -44.5 6t-44 27.5t-21.5 54.5t18.5 55t52.5 31t61.5 11.5t65.5 2.5h17v8q0 33 -69 33q-45 0 -83 -32l-43 53q51 45 138 45q71 0 103 -29t32 -91v-169h-78zM239 553h-28q-99 0 -99 -37q0 -14 15 -22.5t35 -8.5q77 0 77 62v6z" />
    <glyph glyph-name="o.superior" horiz-adv-x="397" 
d="M197 425q-71 0 -119 41.5t-47 105.5q0 65 47.5 106.5t118.5 41.5q72 0 120.5 -41.5t48.5 -106.5q0 -64 -48.5 -105.5t-120.5 -41.5zM197 497q39 0 62 23.5t23 51.5q0 29 -23 52.5t-62 23.5t-61.5 -23.5t-22.5 -52.5t22.5 -52t61.5 -23z" />
    <glyph glyph-name="one.superior" horiz-adv-x="385" 
d="M179 289v317l-84 -75l-55 66l150 117h91v-425h-102z" />
    <glyph glyph-name="two.superior" horiz-adv-x="385" 
d="M31 289v95l180 152q41 36 41 55q0 39 -56 39q-26 0 -43 -15.5t-19 -38.5l-96 6q4 69 48 103.5t115 34.5q69 0 111 -33t42 -95q0 -65 -58 -109l-140 -108v-2h198v-84h-323z" />
    <glyph glyph-name="three.superior" horiz-adv-x="385" 
d="M146 468v84h32q70 0 70 45q0 33 -53 33q-50 0 -61 -44l-103 20q27 114 164 114q65 0 110 -29.5t45 -84.5q0 -36 -20.5 -61t-58.5 -32v-2q40 -5 63.5 -33.5t23.5 -66.5q0 -62 -47 -95t-119 -33q-139 0 -165 118l103 22q10 -50 62 -50q64 0 64 48q0 22 -14 32.5t-29.5 12.5
t-43.5 2h-23z" />
    </font>
</defs>
</svg>
